<?xml version="1.0" standalone="no"?>
<!DOCTYPE svg PUBLIC "-//W3C//DTD SVG 20010904//EN"
 "http://www.w3.org/TR/2001/REC-SVG-20010904/DTD/svg10.dtd">
<svg version="1.0" xmlns="http://www.w3.org/2000/svg"
 width="512.000000pt" height="512.000000pt" viewBox="0 0 512.000000 512.000000"
 preserveAspectRatio="xMidYMid meet">

<g transform="translate(0.000000,512.000000) scale(0.100000,-0.100000)"
fill="#000000" stroke="none">
<path d="M3204 3748 c4 -13 0 -18 -14 -19 -11 -1 -26 -2 -32 -3 -7 -1 -12 5
-10 12 1 8 -2 11 -8 7 -6 -3 -8 -10 -5 -15 10 -17 -40 -20 -52 -3 -11 15 -13
15 -13 1 0 -16 -26 -28 -48 -21 -6 3 -9 10 -6 15 4 7 2 8 -5 4 -6 -4 -9 -11
-6 -16 8 -12 -30 -18 -50 -7 -13 7 -16 6 -11 -2 4 -6 0 -11 -11 -12 -19 -1
-36 -3 -93 -13 -67 -11 -75 -11 -72 2 1 8 -2 11 -8 7 -6 -3 -8 -11 -5 -16 6
-8 1 -10 -37 -13 -7 -1 -12 5 -10 12 1 8 -2 11 -8 7 -6 -3 -8 -10 -5 -15 8
-12 -30 -18 -50 -7 -13 7 -16 6 -11 -2 4 -6 2 -11 -4 -11 -8 0 -11 -67 -10
-227 1 -126 0 -232 -2 -238 -1 -5 -5 46 -8 115 l-6 125 -2 -160 c-2 -176 8
-254 20 -150 3 33 5 -51 3 -187 -3 -209 -1 -246 11 -241 8 3 11 10 8 15 -4 6
3 5 15 -1 12 -7 25 -10 29 -7 4 2 24 7 45 10 74 12 112 18 127 21 8 2 23 4 33
4 12 1 16 5 11 14 -6 9 -4 9 8 -1 8 -7 23 -9 33 -6 15 6 28 8 73 13 7 0 10 6
6 12 -4 8 -1 8 12 2 17 -8 39 -9 54 -3 9 3 33 8 80 15 42 6 77 12 125 20 11 2
28 4 38 4 9 1 17 6 17 12 0 5 -4 8 -8 5 -10 -6 -8 42 3 51 4 5 5 2 1 -4 -5 -9
-2 -11 10 -6 14 5 14 7 1 15 -10 5 -14 16 -10 31 3 12 6 37 6 55 0 17 4 32 10
32 6 0 7 3 4 7 -4 3 1 15 10 26 14 16 15 19 3 15 -13 -5 -15 14 -15 132 0 89
4 136 10 132 6 -3 4 2 -4 11 -8 10 -11 20 -7 24 3 3 6 1 6 -5 0 -7 5 -12 12
-12 7 0 5 7 -5 18 -18 20 -33 97 -17 87 6 -4 10 -2 10 3 0 6 -6 12 -14 15 -18
7 -15 35 5 48 11 7 10 9 -7 9 -17 0 -20 5 -16 31 4 24 2 30 -8 24 -10 -6 -12
-4 -7 8 3 9 2 19 -3 22 -12 7 -8 45 4 45 6 0 0 7 -12 16 -13 9 -21 22 -18 30
3 7 1 16 -4 19 -5 3 -7 12 -3 20 3 9 -1 15 -8 15 -11 0 -11 3 1 11 11 8 6 9
-22 5 -28 -3 -40 -1 -49 12 -10 16 -10 16 -5 0z"/>
<path d="M2607 2860 c-4 -14 -6 -50 -6 -80 l2 -55 8 69 c10 73 7 108 -4 66z"/>
<path d="M2970 2713 c-247 -41 -340 -60 -353 -72 -21 -20 -24 -49 -33 -350 -5
-182 -4 -230 11 -306 19 -104 47 -174 80 -205 l23 -22 23 26 c12 14 26 26 30
26 11 0 239 230 239 241 0 5 9 14 20 21 11 7 20 17 20 23 0 6 14 25 30 43 17
18 30 37 30 43 0 5 5 9 10 9 6 0 9 3 8 8 -3 9 43 86 54 90 5 2 6 8 2 13 -3 5
0 9 6 9 6 0 8 5 5 10 -3 6 -1 10 5 10 6 0 8 5 5 10 -3 6 -1 10 5 10 6 0 8 5 5
10 -3 6 -1 10 5 10 6 0 8 5 5 10 -3 6 -1 10 5 10 6 0 8 5 5 10 -3 6 -1 10 4
10 6 0 10 3 9 8 -3 16 15 62 25 62 6 0 7 3 4 6 -3 4 -1 16 5 28 7 11 13 30 15
41 2 11 8 21 13 23 5 2 6 10 3 18 -3 8 0 14 7 14 6 0 8 5 5 10 -3 6 -3 16 2
23 4 6 9 23 11 37 2 13 7 30 13 36 5 6 6 14 2 17 -3 4 0 13 7 22 18 21 15 21
-370 -42z"/>
<path d="M3520 1138 c0 -21 2 -23 20 -20 10 2 21 -2 25 -8 3 -6 10 -8 15 -5
12 7 35 -25 38 -54 4 -36 2 -356 -3 -470 -4 -93 -9 -109 -36 -116 -41 -9 -57
-18 -53 -28 4 -12 363 -15 383 -3 5 3 25 7 45 8 20 2 36 7 36 12 0 4 7 6 15 2
8 -3 15 -2 15 3 0 9 56 35 64 30 3 -2 13 6 21 19 9 12 23 22 31 22 8 0 19 11
24 24 5 13 17 29 27 34 10 6 17 13 15 17 -2 3 4 27 13 53 10 26 20 54 22 62 8
21 6 142 -2 162 -4 9 -4 22 0 28 3 5 1 10 -5 10 -7 0 -10 7 -6 15 3 8 1 15 -4
15 -8 0 -17 19 -21 45 -1 6 -9 15 -18 22 -9 6 -16 17 -16 25 0 11 -122 79
-170 93 -29 9 -475 11 -475 3z m365 -28 c4 -6 10 -8 15 -5 12 8 90 -25 90 -38
0 -6 3 -8 6 -4 4 3 22 -6 41 -20 18 -14 32 -28 29 -30 -2 -2 7 -15 21 -29 13
-13 21 -29 18 -34 -3 -6 -2 -10 3 -10 9 0 30 -68 31 -100 1 -8 4 -32 7 -53 4
-23 2 -43 -6 -52 -6 -8 -9 -19 -5 -24 8 -13 -15 -91 -27 -91 -5 0 -7 -4 -4 -9
8 -13 -57 -93 -93 -114 -17 -10 -31 -15 -31 -10 0 4 -4 1 -10 -7 -7 -11 -31
-14 -100 -14 -69 0 -93 3 -100 14 -6 8 -10 11 -10 6 0 -5 -9 -1 -20 9 -12 10
-18 25 -16 32 3 7 1 15 -4 18 -6 4 -10 112 -10 268 0 317 -3 307 100 307 38 0
72 -5 75 -10z"/>
<path d="M4355 1132 c-8 -21 -6 -23 19 -16 17 4 31 -2 50 -19 l27 -25 -3 -292
c-3 -277 -4 -292 -23 -306 -11 -8 -24 -13 -30 -10 -6 2 -23 -6 -37 -18 l-27
-21 183 2 c101 2 191 5 200 9 9 4 19 4 22 1 3 -3 17 1 31 8 15 8 30 12 35 9 4
-3 8 0 8 7 0 7 3 10 6 6 10 -10 94 75 112 113 20 40 20 92 2 135 -7 17 -13 32
-13 35 0 7 -35 40 -42 40 -3 -1 -25 8 -50 19 -33 15 -43 24 -39 36 4 9 9 14
11 11 3 -3 19 10 37 29 42 45 55 62 51 66 -2 2 -5 29 -6 59 -3 50 -6 58 -38
82 -20 15 -41 32 -47 37 -7 6 -14 7 -17 4 -3 -3 -10 -2 -16 1 -6 4 -98 8 -206
9 -154 2 -196 -1 -200 -11z m323 -26 c34 -5 105 -63 96 -78 -3 -4 -1 -8 4 -8
16 0 11 -109 -5 -126 -8 -7 -11 -14 -7 -14 3 0 1 -7 -6 -15 -7 -8 -16 -12 -21
-9 -5 3 -9 0 -9 -6 0 -6 -4 -8 -10 -5 -5 3 -10 2 -10 -4 0 -16 -151 -11 -168
5 -11 12 -12 36 -6 127 4 61 8 116 8 120 2 26 40 30 134 13z m52 -322 c22 -9
40 -20 40 -25 0 -5 6 -9 14 -9 49 0 73 -153 35 -216 -31 -51 -63 -66 -146 -69
-70 -2 -76 -1 -103 26 l-29 29 2 133 2 132 40 6 c71 11 104 9 145 -7z"/>
<path d="M2007 906 c-20 -7 -52 -25 -71 -40 -19 -14 -37 -26 -40 -26 -2 0 -2
16 1 35 3 22 2 35 -5 35 -19 0 -174 -39 -181 -45 -6 -7 10 -20 58 -47 l31 -17
0 -123 c0 -173 -5 -196 -44 -206 -21 -6 -32 -15 -34 -30 -3 -22 -1 -22 123
-22 124 0 126 0 123 22 -2 15 -13 24 -35 30 l-33 9 0 158 0 159 28 18 c18 13
45 19 79 19 92 0 111 -41 112 -241 1 -105 -3 -118 -44 -126 -12 -2 -21 -13
-23 -26 -3 -23 -3 -23 120 -20 112 3 123 5 123 22 0 12 -12 22 -35 30 l-35 11
-6 150 c-7 168 -21 221 -71 256 -37 27 -93 33 -141 15z"/>
<path d="M275 895 c-27 -7 -62 -16 -77 -19 -38 -9 -35 -23 9 -41 21 -9 41 -21
45 -28 9 -14 9 -202 0 -272 -6 -44 -11 -52 -39 -64 -21 -9 -33 -22 -33 -34 0
-18 5 -19 68 -14 37 4 91 7 120 7 40 0 52 4 52 15 0 9 -12 18 -30 22 -17 3
-32 8 -34 12 -2 3 -7 72 -11 153 l-7 147 25 25 c33 33 95 49 135 35 56 -19 66
-48 70 -202 4 -150 1 -161 -49 -172 -19 -4 -29 -13 -29 -25 0 -16 11 -17 120
-16 102 1 120 3 120 17 0 8 -15 22 -32 30 l-33 14 -3 157 -3 157 26 17 c39 25
109 30 141 10 44 -30 55 -73 52 -214 l-3 -127 -32 -14 c-21 -9 -33 -22 -33
-34 0 -18 5 -19 53 -13 28 3 82 6 120 6 79 0 90 18 27 43 l-40 15 0 149 c0
170 -14 217 -72 253 -58 35 -126 26 -210 -28 l-38 -25 -40 37 c-55 50 -108 50
-197 1 l-63 -35 0 35 c0 39 -1 39 -75 20z"/>
<path d="M1291 893 c-61 -22 -124 -87 -140 -146 -26 -91 -3 -204 53 -265 90
-100 291 -84 375 29 73 100 63 268 -21 346 -56 53 -175 68 -267 36z m149 -52
c82 -58 114 -225 63 -324 -32 -62 -122 -72 -183 -20 -102 86 -107 314 -8 358
39 18 92 12 128 -14z"/>
<path d="M2480 889 c-83 -37 -111 -80 -111 -165 0 -67 23 -111 74 -140 35 -19
36 -22 20 -35 -10 -9 -30 -23 -45 -32 -37 -23 -35 -33 9 -74 l36 -35 -34 -26
c-78 -62 -83 -68 -82 -105 1 -49 35 -101 81 -123 47 -23 158 -30 209 -14 155
49 242 200 167 289 -30 36 -67 47 -182 57 -96 8 -139 30 -112 58 9 9 40 20 70
26 109 20 170 89 170 192 0 57 0 58 29 58 36 0 61 23 61 56 0 21 -3 23 -19 14
-28 -15 -92 -12 -141 5 -60 21 -146 19 -200 -6z m128 -35 c34 -24 52 -68 52
-128 0 -97 -62 -141 -141 -100 -62 31 -81 156 -33 213 20 24 34 31 63 31 20 0
47 -7 59 -16z m64 -464 c95 -27 104 -141 14 -184 -53 -25 -155 -22 -197 7 -69
46 -75 104 -17 159 27 25 37 28 97 28 36 0 83 -5 103 -10z"/>
<path d="M3029 877 c-80 -41 -118 -97 -126 -184 -12 -130 50 -236 156 -267 67
-20 84 -20 148 -1 112 33 172 108 181 225 11 162 -74 259 -230 260 -56 0 -76
-5 -129 -33z m144 -21 c78 -32 125 -132 114 -246 -6 -73 -29 -117 -71 -137
-112 -53 -229 86 -212 250 7 70 29 111 70 131 38 19 58 20 99 2z"/>
</g>
</svg>
