<?xml version="1.0" encoding="UTF-8"?>
<svg version="1.1" xmlns="http://www.w3.org/2000/svg" width="512" height="512">
<path d="M0 0 C1.01361414 -0.00467997 2.02722828 -0.00935994 3.071558 -0.01418173 C6.46629566 -0.02614289 9.86063047 -0.01666986 13.25537109 -0.00723267 C15.68984208 -0.01129785 18.12431122 -0.01663944 20.55877686 -0.02316284 C26.48362737 -0.03542715 32.40837335 -0.03362535 38.33322096 -0.02492492 C43.14901636 -0.01814622 47.96477981 -0.01723245 52.78057861 -0.02049637 C53.80919508 -0.02118592 53.80919508 -0.02118592 54.85859168 -0.0218894 C56.25172409 -0.02284858 57.6448565 -0.02382122 59.0379889 -0.02480717 C72.09745976 -0.03335917 85.15686741 -0.02352993 98.21632791 -0.00740607 C109.41882708 0.00599695 120.62123298 0.00366881 131.82373047 -0.01016235 C144.83687818 -0.02622154 157.84997052 -0.03253521 170.86312675 -0.02332556 C172.25109735 -0.02236993 173.63906796 -0.02142682 175.02703857 -0.02049637 C175.70992372 -0.02003354 176.39280887 -0.01957072 177.09638751 -0.01909386 C181.90568219 -0.01650499 186.71494172 -0.02087276 191.52423096 -0.02793503 C197.99865903 -0.03723362 204.47295239 -0.03060112 210.94736481 -0.01325226 C213.32498125 -0.00928201 215.70261251 -0.01043062 218.08022308 -0.01704025 C221.3228888 -0.02522427 224.56498769 -0.01497159 227.80761719 0 C228.7510026 -0.00669217 229.69438801 -0.01338433 230.66636086 -0.02027929 C237.22868704 0.03858667 241.42938386 1.24040659 246.50927734 5.63485718 C249.15202406 8.66560912 251.22032274 11.84762318 253.21630859 15.31845093 C253.59658203 15.96870239 253.97685547 16.61895386 254.36865234 17.28890991 C255.15792924 18.64155933 255.94388038 19.9961546 256.7265625 21.35263062 C257.87645641 23.33382485 259.04896201 25.29982177 260.22802734 27.26376343 C260.9539101 28.48995773 261.67919553 29.71650588 262.40380859 30.94345093 C263.05349609 32.03786499 263.70318359 33.13227905 264.37255859 34.25985718 C265.91854201 37.41098154 266.62403815 39.89381216 266.90380859 43.38095093 C266.25345045 44.7223146 265.58751309 46.05627346 264.90380859 47.38095093 C265.13818373 51.71689089 266.87173952 56.22725157 269.90380859 59.38095093 C271.90112594 59.6064545 273.9017115 59.8246341 275.90917969 59.92562866 C279.955906 60.84939177 281.77356638 65.079421 283.90380859 68.38095093 C286.13915199 72.07322031 288.283206 75.81144002 290.39285278 79.57681274 C292.1444682 82.70272213 293.91460115 85.81815408 295.68115234 88.93563843 C296.21644814 89.88223831 296.21644814 89.88223831 296.76255798 90.84796143 C300.11125121 96.76479921 303.52944867 102.63991743 306.96630859 108.50595093 C313.69675269 120.00916983 320.3603699 131.55019141 327.01269531 143.09872437 C329.51742363 147.44594455 332.02467638 151.79170563 334.53222656 156.13729858 C335.77760654 158.29567562 337.02272474 160.45420373 338.26757812 162.61288452 C341.45045139 168.13191849 344.63692666 173.64882372 347.82958984 179.16220093 C370.07072905 217.59435662 370.07072905 217.59435662 370.27880859 224.38095093 C370.32779297 225.45345093 370.37677734 226.52595093 370.42724609 227.63095093 C369.18115854 236.55814534 363.11693168 244.61152702 358.59130859 252.25595093 C353.29755921 261.26153953 348.0724038 270.30321202 342.90380859 279.38095093 C337.39200798 289.05623489 331.81955632 298.69378358 326.19287109 308.30282593 C321.71214483 315.96669257 317.29898171 323.66787367 312.90380859 331.38095093 C306.78999184 342.10799389 300.61475366 352.79764038 294.38037109 363.45516968 C293.8806781 364.33391251 293.38098511 365.21265533 292.8661499 366.11802673 C291.44645873 368.47864802 290.01007956 370.6645206 288.41387939 372.89533997 C280.27941184 384.71007184 279.54541382 394.59938548 279.84912109 408.65438843 C279.85551052 410.75607396 279.8568663 412.85778013 279.85348511 414.95947266 C279.85531982 420.44356757 279.91297625 425.92548159 279.98675537 431.4090271 C280.09724047 440.20229416 280.12878679 448.99591484 280.14611435 457.78978348 C280.16129288 460.83846565 280.20512627 463.88569899 280.25296021 466.934021 C280.36226059 477.82872779 279.96878434 486.70277648 274.15380859 496.25595093 C268.81801262 501.2953138 263.26104923 504.46856009 255.85327148 504.57382202 C254.31135887 504.59791641 254.31135887 504.59791641 252.73829651 504.62249756 C248.05234472 504.66694924 243.36653301 504.70798424 238.68041992 504.73104858 C236.2060406 504.74763878 233.73170979 504.77496851 231.25756836 504.81307983 C227.69278064 504.86770714 224.12911411 504.88969871 220.56396484 504.90438843 C219.45658463 504.9270578 218.34920441 504.94972717 217.20826721 504.9730835 C209.55090832 504.95191786 209.55090832 504.95191786 206.17504883 501.97323608 C204.90380859 499.38095093 204.90380859 499.38095093 204.90380859 497.38095093 C199.29380859 497.38095093 193.68380859 497.38095093 187.90380859 497.38095093 C187.24380859 499.03095093 186.58380859 500.68095093 185.90380859 502.38095093 C183.31170226 504.97305727 181.53546083 504.62759017 178.00337684 504.65776193 C177.1703237 504.65466473 176.33727056 504.65156752 175.47897339 504.64837646 C174.15568061 504.65517313 174.15568061 504.65517313 172.80565464 504.66210711 C169.83164711 504.67482834 166.8578209 504.67312576 163.88378906 504.67147827 C161.75856794 504.67745889 159.63334899 504.68426335 157.50813293 504.6918335 C151.72069716 504.70955271 145.93332047 504.71419149 140.1458602 504.71546507 C135.31751474 504.71736099 130.48918315 504.72471537 125.66084301 504.73180926 C114.26721507 504.7481149 102.87361874 504.7529764 91.47998047 504.7515564 C79.72505865 504.75035582 67.9703207 504.77143603 56.2154454 504.80304372 C46.12873052 504.82919995 36.04207569 504.83992389 25.95532715 504.83864558 C19.9288304 504.83813556 13.90249679 504.84384027 7.87603378 504.86500168 C2.20431883 504.88437175 -3.46707725 504.88451669 -9.13880348 504.86996841 C-11.21887363 504.86787739 -13.29896365 504.87259862 -15.37899971 504.88468933 C-18.22285857 504.90014676 -21.0656188 504.89083 -23.90945435 504.87542725 C-25.13895756 504.89085794 -25.13895756 504.89085794 -26.39329922 504.90660036 C-33.43875632 504.82250754 -38.52682861 502.59994607 -43.84619141 498.00595093 C-50.58005452 490.14977729 -52.4330466 483.26322281 -52.19287109 473.15463257 C-52.16708641 471.29201035 -52.14152303 469.42938507 -52.1161499 467.5667572 C-52.09924858 466.58627474 -52.08234726 465.60579227 -52.06493378 464.59559822 C-51.98421476 459.33489133 -51.96954612 454.07380367 -51.94384766 448.81259155 C-51.90842504 442.14818551 -51.85439113 435.48587239 -51.72265625 428.82260132 C-50.45816052 394.42568422 -50.45816052 394.42568422 -65.42327881 364.49798584 C-67.73125329 361.57729378 -69.43476107 358.53027858 -71.21728516 355.26376343 C-71.77158203 354.3021228 -72.32587891 353.34048218 -72.89697266 352.34970093 C-73.43708984 351.41126343 -73.97720703 350.47282593 -74.53369141 349.50595093 C-75.79278942 347.32104555 -77.05190451 345.13615001 -78.31103516 342.95126343 C-78.93606934 341.86619507 -79.56110352 340.78112671 -80.20507812 339.66317749 C-83.33299289 334.2343515 -86.46477588 328.80775812 -89.59619141 323.38095093 C-90.8462102 321.2142951 -92.09621019 319.04762843 -93.34619141 316.88095093 C-93.96494141 315.80845093 -94.58369141 314.73595093 -95.22119141 313.63095093 C-100.84619141 303.88095093 -100.84619141 303.88095093 -102.72167969 300.62997437 C-103.96990175 298.46647616 -105.2182738 296.30306449 -106.46679688 294.13973999 C-109.62024397 288.67530076 -112.77095236 283.20931447 -115.91650391 277.74032593 C-117.18454925 275.53709512 -118.452777 273.33396928 -119.72119141 271.13095093 C-120.33567139 270.06336548 -120.95015137 268.99578003 -121.58325195 267.89584351 C-126.33447157 259.65901298 -131.16175576 251.46881951 -136.06152344 243.31942749 C-136.56409668 242.47734741 -137.06666992 241.63526733 -137.58447266 240.76766968 C-138.02315674 240.03765747 -138.46184082 239.30764526 -138.91381836 238.55551147 C-142.54968693 231.86860638 -143.32524527 225.90401313 -142.09619141 218.38095093 C-139.94530723 212.32853618 -136.37173284 206.87115593 -133.09619141 201.38095093 C-132.03114828 199.54648755 -130.96876751 197.71047656 -129.90869141 195.87313843 C-127.56578488 191.82371631 -125.2064244 187.78452024 -122.83447266 183.75204468 C-119.07498176 177.3562834 -115.36162352 170.93458535 -111.65869141 164.50595093 C-111.03655762 163.42644165 -110.41442383 162.34693237 -109.7734375 161.23471069 C-108.51121307 159.04430343 -107.24916903 156.85379221 -105.98730469 154.66317749 C-102.85938992 149.2343515 -99.72760693 143.80775812 -96.59619141 138.38095093 C-95.34617262 136.2142951 -94.09617262 134.04762843 -92.84619141 131.88095093 C-80.34619141 110.21428426 -67.84619141 88.54761759 -55.34619141 66.88095093 C-54.72687744 65.80740356 -54.10756348 64.7338562 -53.46948242 63.6277771 C-52.22542349 61.4715488 -50.98112198 59.31546044 -49.73657227 57.15951538 C-46.51862352 51.58429583 -43.30548872 46.00636804 -40.10009766 40.42391968 C-28.74224213 20.65444026 -28.74224213 20.65444026 -24.47119141 13.56845093 C-23.92205078 12.65450562 -23.37291016 11.7405603 -22.80712891 10.79891968 C-16.57885949 1.9968677 -10.30478125 -0.07309981 0 0 Z " fill="#5A5B6B" transform="translate(142.09619140625,3.619049072265625)"/>
<path d="M0 0 C1.01361414 -0.00467997 2.02722828 -0.00935994 3.071558 -0.01418173 C6.46629566 -0.02614289 9.86063047 -0.01666986 13.25537109 -0.00723267 C15.68984208 -0.01129785 18.12431122 -0.01663944 20.55877686 -0.02316284 C26.48362737 -0.03542715 32.40837335 -0.03362535 38.33322096 -0.02492492 C43.14901636 -0.01814622 47.96477981 -0.01723245 52.78057861 -0.02049637 C53.80919508 -0.02118592 53.80919508 -0.02118592 54.85859168 -0.0218894 C56.25172409 -0.02284858 57.6448565 -0.02382122 59.0379889 -0.02480717 C72.09745976 -0.03335917 85.15686741 -0.02352993 98.21632791 -0.00740607 C109.41882708 0.00599695 120.62123298 0.00366881 131.82373047 -0.01016235 C144.83687818 -0.02622154 157.84997052 -0.03253521 170.86312675 -0.02332556 C172.25109735 -0.02236993 173.63906796 -0.02142682 175.02703857 -0.02049637 C175.70992372 -0.02003354 176.39280887 -0.01957072 177.09638751 -0.01909386 C181.90568219 -0.01650499 186.71494172 -0.02087276 191.52423096 -0.02793503 C197.99865903 -0.03723362 204.47295239 -0.03060112 210.94736481 -0.01325226 C213.32498125 -0.00928201 215.70261251 -0.01043062 218.08022308 -0.01704025 C221.3228888 -0.02522427 224.56498769 -0.01497159 227.80761719 0 C228.7510026 -0.00669217 229.69438801 -0.01338433 230.66636086 -0.02027929 C237.22868704 0.03858667 241.42938386 1.24040659 246.50927734 5.63485718 C249.15202406 8.66560912 251.22032274 11.84762318 253.21630859 15.31845093 C253.59658203 15.96870239 253.97685547 16.61895386 254.36865234 17.28890991 C255.15792924 18.64155933 255.94388038 19.9961546 256.7265625 21.35263062 C257.87645641 23.33382485 259.04896201 25.29982177 260.22802734 27.26376343 C260.9539101 28.48995773 261.67919553 29.71650588 262.40380859 30.94345093 C263.05349609 32.03786499 263.70318359 33.13227905 264.37255859 34.25985718 C266.43321627 38.46002423 267.46802836 41.68829162 265.96630859 46.19345093 C263.38809246 48.92792258 261.64650558 49.24585063 258.03662109 49.82626343 C254.65646618 49.1205168 253.18998385 46.89441054 250.90380859 44.38095093 C249.61157519 42.39004667 248.39184503 40.35062916 247.23974609 38.27548218 C246.59263672 37.12757202 245.94552734 35.97966187 245.27880859 34.79696655 C244.61129713 33.59626394 243.94463882 32.39508666 243.27880859 31.19345093 C241.96140701 28.82016276 240.63463858 26.45297884 239.30224609 24.08798218 C238.43092041 22.5175415 238.43092041 22.5175415 237.54199219 20.91537476 C235.99608887 18.15526744 235.99608887 18.15526744 232.90380859 16.38095093 C230.96508445 16.07367475 230.96508445 16.07367475 228.82166672 16.10692215 C227.98747892 16.09677306 227.15329113 16.08662398 226.29382491 16.07616735 C224.91918999 16.07467407 224.91918999 16.07467407 223.51678467 16.07315063 C222.54319134 16.06438613 221.56959801 16.05562162 220.56650186 16.04659152 C217.2892813 16.01978516 214.01216834 16.00745126 210.73486328 15.99520874 C208.39112357 15.97940931 206.04738874 15.96287157 203.70365906 15.94564819 C195.99438126 15.8931824 188.28508158 15.86259267 180.57568359 15.83407593 C177.92387121 15.82335802 175.27205897 15.81260301 172.62024689 15.80181122 C161.59182306 15.75815285 150.56339755 15.72077379 139.53490829 15.69856644 C136.67333713 15.6927071 133.81176612 15.68678376 130.95019531 15.68075562 C130.23897106 15.67926351 129.52774681 15.67777141 128.7949703 15.6762341 C117.27300467 15.65092558 105.75165622 15.58447739 94.22997913 15.50115195 C82.3997464 15.41629657 70.56982959 15.36917479 58.73929334 15.35872531 C52.09716862 15.35189894 45.45589993 15.32728 38.81404877 15.26251984 C32.56575634 15.20247028 26.31914644 15.18969236 20.07062721 15.21328735 C17.77721962 15.21372978 15.48373525 15.19703982 13.19059563 15.16197968 C1.46828496 14.45987613 1.46828496 14.45987613 -8.97814083 18.57827568 C-10.81238562 21.14357587 -11.99476177 23.43896809 -13.09619141 26.38095093 C-13.70922119 27.38722534 -14.32225098 28.39349976 -14.95385742 29.43026733 C-15.4146167 30.27250854 -15.87537598 31.11474976 -16.35009766 31.98251343 C-16.88683105 32.95422485 -17.42356445 33.92593628 -17.9765625 34.92709351 C-18.80921631 36.45112793 -18.80921631 36.45112793 -19.65869141 38.00595093 C-24.33443628 46.45999325 -29.07979905 54.86224221 -33.97119141 63.19345093 C-39.07238278 71.88926792 -44.1061345 80.6210941 -49.09619141 89.38095093 C-54.63572244 99.10238077 -60.22994327 108.78990397 -65.87963867 118.44784546 C-72.03385882 128.97179717 -78.11989137 139.5347523 -84.20507812 150.09872437 C-87.9535237 156.60454703 -91.70713322 163.10739175 -95.45996094 169.61068726 C-98.64947936 175.13832374 -101.83726962 180.66694474 -105.02197266 186.19735718 C-105.66779297 187.31779419 -106.31361328 188.4382312 -106.97900391 189.59262085 C-108.25082992 191.8010991 -109.520416 194.01086902 -110.78759766 196.22201538 C-113.55609298 201.04137122 -116.34936407 205.83170922 -119.29541016 210.54501343 C-119.77324951 211.31901489 -120.25108887 212.09301636 -120.7434082 212.89047241 C-121.61001224 214.28570335 -122.49174038 215.67172085 -123.39233398 217.04525757 C-125.31800129 220.16216121 -126.09576777 222.19116371 -126.10400391 225.88095093 C-124.94480683 229.9066896 -123.18434464 233.18043353 -120.97119141 236.69345093 C-120.05419465 238.20027135 -119.13894372 239.70815511 -118.22509766 241.21688843 C-117.72381348 242.03898804 -117.2225293 242.86108765 -116.70605469 243.70809937 C-113.69868298 248.70123031 -110.81192985 253.76431702 -107.90869141 258.81845093 C-106.61331174 261.06726017 -105.31773627 263.31595664 -104.02197266 265.56454468 C-103.37180176 266.69360229 -102.72163086 267.82265991 -102.05175781 268.9859314 C-98.90287087 274.45265072 -95.74935877 279.9166998 -92.59619141 285.38095093 C-91.34616791 287.54760404 -90.09616794 289.71427072 -88.84619141 291.88095093 C-88.22744141 292.95345093 -87.60869141 294.02595093 -86.97119141 295.13095093 C-85.09619141 298.38095093 -83.22119141 301.63095093 -81.34619141 304.88095093 C-80.72663574 305.95482056 -80.10708008 307.02869019 -79.46875 308.13510132 C-78.22679396 310.28787909 -76.984931 312.44071056 -75.74316406 314.59359741 C-72.83972228 319.62712007 -69.93540641 324.66013141 -67.02764893 329.69116211 C-66.00273738 331.464577 -64.97813018 333.23816739 -63.95361328 335.0118103 C-62.67166403 337.23090866 -61.38915034 339.44968109 -60.10595703 341.6680603 C-56.71341341 347.54222147 -53.36546967 353.43723442 -50.09619141 359.38095093 C-49.58056641 358.67970093 -49.06494141 357.97845093 -48.53369141 357.25595093 C-45.3011514 353.44321143 -41.61290736 349.6393089 -37.09619141 347.38095093 C-38.59805585 343.14842386 -40.74645854 339.48109043 -43.07275391 335.66220093 C-44.26158895 333.01227854 -44.40083873 331.25606009 -44.09619141 328.38095093 C-42.01797391 325.503419 -40.52304218 324.52626183 -37.15869141 323.38095093 C-33.03054772 323.38095093 -32.05949649 324.53298407 -29.09619141 327.38095093 C-27.29270276 329.9865798 -25.78307464 332.71674883 -24.28369141 335.50595093 C-23.87699219 336.23427124 -23.47029297 336.96259155 -23.05126953 337.71298218 C-20.09619141 343.0867545 -20.09619141 343.0867545 -20.09619141 345.38095093 C68.34380859 345.38095093 156.78380859 345.38095093 247.90380859 345.38095093 C248.56380859 343.73095093 249.22380859 342.08095093 249.90380859 340.38095093 C250.50932996 339.17423336 251.13902421 337.97928486 251.79443359 336.79891968 C252.16648926 336.12747925 252.53854492 335.45603882 252.921875 334.76425171 C253.32841309 334.03963745 253.73495117 333.31502319 254.15380859 332.56845093 C254.58999512 331.78711792 255.02618164 331.00578491 255.47558594 330.20077515 C259.66295903 322.73860558 263.98080751 315.35371389 268.30712891 307.9715271 C272.8933852 300.13841261 277.41121486 292.26795183 281.90380859 284.38095093 C286.36684461 276.54748659 290.84789502 268.72579652 295.40063477 260.94393921 C296.55700705 258.96485338 297.70833166 256.98280838 298.85424805 254.99765015 C301.67649738 250.11834025 304.56720033 245.31222068 307.61865234 240.57235718 C308.20291992 239.63512817 308.7871875 238.69789917 309.38916016 237.73226929 C310.49011611 235.9688764 311.62196016 234.22423922 312.78955078 232.50424194 C314.27462786 230.08248087 315.30279111 228.15968855 315.90380859 225.38095093 C314.96863469 221.5785955 313.03002429 218.63595208 310.90380859 215.38095093 C309.90176347 213.6369611 308.90579158 211.88946948 307.91552734 210.13876343 C306.81018618 208.25954979 305.70197367 206.38202291 304.59130859 204.50595093 C299.29755921 195.50036232 294.0724038 186.45868983 288.90380859 177.38095093 C283.95077446 168.68651238 278.96010984 160.01591288 273.90380859 151.38095093 C268.500244 142.15294564 263.17728498 132.88100423 257.88330078 123.5899353 C252.71649244 114.52449017 247.48714934 105.49751235 242.21264648 96.49423218 C238.99565751 90.99381901 235.80679972 85.47850373 232.64990234 79.94345093 C232.29046539 79.3132605 231.93102844 78.68307007 231.56069946 78.03378296 C229.81073656 74.9637037 228.0636483 71.89202091 226.31982422 68.81845093 C223.60839719 64.05207666 220.89704247 59.31174833 217.93896484 54.69345093 C215.90380859 51.38095093 215.90380859 51.38095093 215.90380859 49.38095093 C148.58380859 49.38095093 81.26380859 49.38095093 11.90380859 49.38095093 C11.24380859 51.03095093 10.58380859 52.68095093 9.90380859 54.38095093 C8.8786576 56.29750771 7.81937691 58.19600623 6.73583984 60.08016968 C6.09767334 61.19343628 5.45950684 62.30670288 4.80200195 63.45370483 C4.10685326 64.65866775 3.41161989 65.86358183 2.71630859 67.06845093 C1.99412242 68.32529892 1.27220269 69.58230004 0.55053711 70.83944702 C-1.30362208 74.06732241 -3.16183094 77.29284442 -5.02160645 80.51748657 C-6.67011324 83.37620297 -8.31650828 86.23613547 -9.96337891 89.09579468 C-13.04930455 94.4509265 -16.1405468 99.80297226 -19.23291016 105.15438843 C-21.11654191 108.416191 -22.99741462 111.67956937 -24.87744141 114.94345093 C-30.9005888 125.39808044 -36.94141586 135.84143535 -43.03369141 146.25595093 C-48.45304475 155.52191627 -53.79414529 164.83087102 -59.10836792 174.15731812 C-63.30257489 181.51649282 -67.52061093 188.86071424 -71.79638672 196.17294312 C-72.97896618 198.19866387 -74.15559213 200.22787415 -75.32568359 202.26083374 C-77.74831919 206.45807483 -80.18221646 210.5844604 -82.95556641 214.56063843 C-83.36613281 215.17697144 -83.77669922 215.79330444 -84.19970703 216.42831421 C-85.23981377 217.97297017 -86.32951333 219.48394275 -87.42431641 220.99032593 C-88.59332255 226.88972903 -85.01311614 231.37650711 -82.09619141 236.38095093 C-81.57589355 237.30391968 -81.0555957 238.22688843 -80.51953125 239.17782593 C-78.92789599 241.9716163 -77.29852209 244.74019931 -75.65869141 247.50595093 C-74.42889261 249.59672507 -73.19974995 251.68788526 -71.97119141 253.77938843 C-71.33826172 254.85543335 -70.70533203 255.93147827 -70.05322266 257.04013062 C-66.72584735 262.72024585 -63.44288931 268.425797 -60.15869141 274.13095093 C-58.96230786 276.20920895 -57.76570096 278.2873384 -56.56884766 280.36532593 C-56.00222412 281.35210327 -55.43560059 282.33888062 -54.85180664 283.3555603 C-53.62472152 285.47015338 -52.38060937 287.57491626 -51.1237793 289.67196655 C-50.48819092 290.73608765 -49.85260254 291.80020874 -49.19775391 292.89657593 C-48.61977051 293.85338257 -48.04178711 294.81018921 -47.44628906 295.79598999 C-45.53690355 299.45178996 -45.1760292 301.36569766 -46.09619141 305.38095093 C-47.72119141 307.81845093 -47.72119141 307.81845093 -50.09619141 309.38095093 C-53.03369141 309.94345093 -53.03369141 309.94345093 -56.09619141 309.38095093 C-61.64296043 304.98737615 -64.46660769 298.75861347 -67.78369141 292.63095093 C-69.03750744 290.35284034 -70.29271857 288.07549702 -71.54931641 285.79891968 C-72.46293945 284.13868774 -72.46293945 284.13868774 -73.39501953 282.44491577 C-75.54506762 278.57248416 -77.76861478 274.74941568 -80.03369141 270.94345093 C-84.04905758 264.17386248 -88.01896826 257.37861946 -91.95999146 250.56549072 C-92.94498275 248.86373135 -93.93253973 247.16345782 -94.92016602 245.46322632 C-96.66389271 242.44582897 -98.38398865 239.41631594 -100.09619141 236.38095093 C-100.53608398 235.63087769 -100.97597656 234.88080444 -101.42919922 234.10800171 C-103.92004144 229.61945592 -105.38214826 225.51822292 -104.09619141 220.38095093 C-102.07833646 215.89046958 -99.5751685 211.71365464 -97.03369141 207.50595093 C-96.30091324 206.26364867 -95.56990279 205.02030218 -94.84057617 203.77597046 C-93.33878617 201.21820453 -91.82845983 198.66579906 -90.31103516 196.11727905 C-86.99111073 190.53200289 -83.76871661 184.89065608 -80.53369141 179.25595093 C-79.29351965 177.1071014 -78.0526336 174.95866394 -76.81103516 172.81063843 C-73.06967485 166.33585071 -69.33261658 159.8585875 -65.59619141 153.38095093 C-64.34621019 151.21427342 -63.0962102 149.04760675 -61.84619141 146.88095093 C-61.22744141 145.80845093 -60.60869141 144.73595093 -59.97119141 143.63095093 C-49.65869141 125.75595093 -49.65869141 125.75595093 -39.34619141 107.88095093 C-38.72736084 106.80828979 -38.10853027 105.73562866 -37.47094727 104.63046265 C-36.22183623 102.46538022 -34.97265011 100.30034111 -33.72338867 98.13534546 C-29.95233372 91.59976762 -26.18393603 85.0626688 -22.41821289 78.52401733 C-20.55434706 75.29177119 -18.68469777 72.06291714 -16.81494141 68.83407593 C-14.26386967 64.42352047 -11.74860128 59.9946714 -9.25244141 55.55282593 C-8.01288087 53.37052131 -6.77329836 51.18822918 -5.53369141 49.00595093 C-4.97415771 47.99516479 -4.41462402 46.98437866 -3.83813477 45.94296265 C-3.30325439 45.0072644 -2.76837402 44.07156616 -2.21728516 43.10751343 C-1.52783813 41.8789563 -1.52783813 41.8789563 -0.82446289 40.62557983 C1.72454022 37.31500848 4.63557122 34.81075027 8.85441494 34.01133823 C11.14803693 33.8661557 13.41109704 33.84773447 15.70922852 33.87301636 C16.58400187 33.86677639 17.45877523 33.86053643 18.36005688 33.85410738 C21.28507293 33.83817955 24.20925542 33.85078086 27.13427734 33.8633728 C29.23377976 33.8579516 31.33327837 33.85082895 33.43276978 33.84213257 C39.13107758 33.82389622 44.82909572 33.83096818 50.5274086 33.84364891 C56.49036694 33.85377488 62.45330045 33.84438435 68.41625977 33.83810425 C78.43005832 33.83082669 88.44373889 33.84041847 98.45751953 33.85946655 C110.0353564 33.88123541 121.6129115 33.87418413 133.19074154 33.85216093 C143.13060131 33.8340101 153.07037625 33.83144709 163.01024723 33.84191561 C168.94717591 33.84815224 174.88397215 33.84898137 180.82089233 33.83576965 C186.40240038 33.8242165 191.9835451 33.83222746 197.56501389 33.85534668 C199.61366548 33.86063658 201.66234765 33.85911522 203.71098709 33.85029602 C206.50720066 33.83936824 209.30224936 33.85307084 212.09838867 33.87301636 C213.31502842 33.85963203 213.31502842 33.85963203 214.55624676 33.84597731 C219.78616349 33.91835853 222.74320617 34.94001364 226.90380859 38.38095093 C228.72387695 40.80917358 228.72387695 40.80917358 230.24365234 43.54501343 C231.11376953 45.08415405 231.11376953 45.08415405 232.00146484 46.65438843 C232.60861328 47.76040405 233.21576172 48.86641968 233.84130859 50.00595093 C234.49605993 51.17345933 235.15233961 52.34011178 235.81005859 53.50595093 C237.17390166 55.92618754 238.53112668 58.34995686 239.88378906 60.77645874 C242.9959662 66.34640329 246.20494815 71.86050668 249.40380859 77.38095093 C250.65426015 79.54735702 251.90425882 81.71402458 253.15380859 83.88095093 C253.77255859 84.95345093 254.39130859 86.02595093 255.02880859 87.13095093 C271.90380859 116.38095093 288.77880859 145.63095093 305.65380859 174.88095093 C306.27376709 175.95490112 306.89372559 177.02885132 307.5324707 178.13534546 C308.77252253 180.28606287 310.0103444 182.43806767 311.24584961 184.59140015 C314.156803 189.65857261 317.08814687 194.70993701 320.10128784 199.71694946 C321.51745617 202.0733479 322.92080159 204.43726158 324.32324219 206.80184937 C325.31426548 208.46068451 326.32364603 210.10850926 327.33349609 211.75595093 C332.98291418 221.30528988 332.98291418 221.30528988 332.5078125 226.26376343 C331.06694886 231.31435741 328.46775986 235.82778936 325.90380859 240.38095093 C325.38705566 241.30166382 324.87030273 242.22237671 324.33789062 243.17098999 C322.7391851 245.96483455 321.10790194 248.73710651 319.46630859 251.50595093 C318.22612623 253.61497379 316.98656422 255.72436154 315.74755859 257.83407593 C314.79623047 259.4515271 314.79623047 259.4515271 313.82568359 261.10165405 C310.67896752 266.47089826 307.5722224 271.86303284 304.46630859 277.25595093 C303.53347046 278.8746106 303.53347046 278.8746106 302.58178711 280.52597046 C301.31931128 282.71678044 300.05702304 284.90769852 298.79492188 287.09872437 C296.28957362 291.44702051 293.78173037 295.79387434 291.2734375 300.14047241 C290.03432381 302.28812924 288.79571096 304.43607511 287.55761719 306.58432007 C284.63236857 311.65899049 281.70278272 316.73101003 278.75790405 321.79431152 C277.36832229 324.18410761 275.98118687 326.57531929 274.59423828 328.96664429 C273.61517606 330.65235682 272.63258254 332.33601679 271.64990234 334.0196228 C271.05693359 335.0424939 270.46396484 336.06536499 269.85302734 337.11923218 C269.06931763 338.46561768 269.06931763 338.46561768 268.26977539 339.83920288 C266.94565419 342.30308595 265.88674285 344.76459824 264.90380859 347.38095093 C265.43490234 347.74446655 265.96599609 348.10798218 266.51318359 348.48251343 C271.05525613 351.71501031 274.13440145 354.53448843 276.90380859 359.38095093 C279.19131819 356.4511987 281.10359651 353.44094728 282.95068359 350.21688843 C283.54042969 349.19079468 284.13017578 348.16470093 284.73779297 347.10751343 C285.37007813 346.0014978 286.00236328 344.89548218 286.65380859 343.75595093 C287.32345253 342.58912471 287.99337943 341.42246084 288.66357422 340.25595093 C290.05529629 337.83307581 291.44579963 335.40950747 292.83544922 332.98544312 C296.0135189 327.44405065 299.20958832 321.91304346 302.40380859 316.38095093 C303.65389327 314.21433312 304.903893 312.04766629 306.15380859 309.88095093 C308.65380859 305.54761759 311.15380859 301.21428426 313.65380859 296.88095093 C314.58217529 295.27171753 314.58217529 295.27171753 315.52929688 293.62997437 C316.77751894 291.46647616 318.02589099 289.30306449 319.27441406 287.13973999 C322.42786115 281.67530076 325.57856955 276.20931447 328.72412109 270.74032593 C329.66940674 269.09834229 329.66940674 269.09834229 330.63378906 267.42318726 C331.88661923 265.24663292 333.13826758 263.06939785 334.38867188 260.89144897 C337.43815391 255.59423614 340.52594571 250.32685369 343.70068359 245.10360718 C344.30315918 244.1068396 344.90563477 243.11007202 345.52636719 242.08309937 C346.65973725 240.21425456 347.80268206 238.35116848 348.95703125 236.49520874 C353.01123771 229.90580201 353.01123771 229.90580201 353.90380859 222.38095093 C352.29053443 218.58666638 350.15609942 215.17919352 347.96630859 211.69345093 C346.66379117 209.54476284 345.36308163 207.39497803 344.06396484 205.24423218 C343.37963379 204.1222644 342.69530273 203.00029663 341.99023438 201.84432983 C338.85645037 196.67408859 335.88685764 191.41011018 332.90692139 186.15026855 C331.22560734 183.18472111 329.53588132 180.2239865 327.84521484 177.26376343 C327.51356323 176.68302567 327.18191162 176.1022879 326.84020996 175.50395203 C323.54126603 169.73469758 320.19643617 163.99265815 316.84130859 158.25595093 C306.01738946 139.74885883 295.31352348 121.17205734 284.70678711 102.53964233 C281.58703044 97.06223051 278.45276353 91.59539555 275.26318359 86.15829468 C274.70397217 85.19899048 274.14476074 84.23968628 273.56860352 83.25131226 C272.53467207 81.47978109 271.49366604 79.7123511 270.4440918 77.95004272 C268.03491927 73.80633416 266.05120174 70.29651222 265.90380859 65.38095093 C267.58966986 62.57118215 268.87360472 60.87943667 271.84130859 59.44345093 C274.66556475 59.35786741 276.37375894 60.1287162 278.90380859 61.38095093 C284.564595 67.62813516 288.44683217 75.6490663 292.46630859 83.00595093 C297.16488777 91.50019069 301.93091562 99.94476293 306.84130859 108.31845093 C311.70326488 116.61470024 316.54007716 124.92438392 321.34130859 133.25595093 C321.96384521 134.33610474 322.58638184 135.41625854 323.2277832 136.52914429 C324.48957686 138.71891427 325.75121393 140.90877448 327.01269531 143.09872437 C329.51742363 147.44594455 332.02467638 151.79170563 334.53222656 156.13729858 C335.77760654 158.29567562 337.02272474 160.45420373 338.26757812 162.61288452 C341.45045139 168.13191849 344.63692666 173.64882372 347.82958984 179.16220093 C370.07072905 217.59435662 370.07072905 217.59435662 370.27880859 224.38095093 C370.32779297 225.45345093 370.37677734 226.52595093 370.42724609 227.63095093 C369.18115854 236.55814534 363.11693168 244.61152702 358.59130859 252.25595093 C353.29755921 261.26153953 348.0724038 270.30321202 342.90380859 279.38095093 C337.39200798 289.05623489 331.81955632 298.69378358 326.19287109 308.30282593 C321.71214483 315.96669257 317.29898171 323.66787367 312.90380859 331.38095093 C306.78999184 342.10799389 300.61475366 352.79764038 294.38037109 363.45516968 C293.8806781 364.33391251 293.38098511 365.21265533 292.8661499 366.11802673 C291.44645873 368.47864802 290.01007956 370.6645206 288.41387939 372.89533997 C280.27941184 384.71007184 279.54541382 394.59938548 279.84912109 408.65438843 C279.85551052 410.75607396 279.8568663 412.85778013 279.85348511 414.95947266 C279.85531982 420.44356757 279.91297625 425.92548159 279.98675537 431.4090271 C280.09724047 440.20229416 280.12878679 448.99591484 280.14611435 457.78978348 C280.16129288 460.83846565 280.20512627 463.88569899 280.25296021 466.934021 C280.36226059 477.82872779 279.96878434 486.70277648 274.15380859 496.25595093 C268.81801262 501.2953138 263.26104923 504.46856009 255.85327148 504.57382202 C254.31135887 504.59791641 254.31135887 504.59791641 252.73829651 504.62249756 C248.05234472 504.66694924 243.36653301 504.70798424 238.68041992 504.73104858 C236.2060406 504.74763878 233.73170979 504.77496851 231.25756836 504.81307983 C227.69278064 504.86770714 224.12911411 504.88969871 220.56396484 504.90438843 C219.45658463 504.9270578 218.34920441 504.94972717 217.20826721 504.9730835 C209.55090832 504.95191786 209.55090832 504.95191786 206.17504883 501.97323608 C204.90380859 499.38095093 204.90380859 499.38095093 204.90380859 497.38095093 C199.29380859 497.38095093 193.68380859 497.38095093 187.90380859 497.38095093 C187.24380859 499.03095093 186.58380859 500.68095093 185.90380859 502.38095093 C183.31170226 504.97305727 181.53546083 504.62759017 178.00337684 504.65776193 C177.1703237 504.65466473 176.33727056 504.65156752 175.47897339 504.64837646 C174.15568061 504.65517313 174.15568061 504.65517313 172.80565464 504.66210711 C169.83164711 504.67482834 166.8578209 504.67312576 163.88378906 504.67147827 C161.75856794 504.67745889 159.63334899 504.68426335 157.50813293 504.6918335 C151.72069716 504.70955271 145.93332047 504.71419149 140.1458602 504.71546507 C135.31751474 504.71736099 130.48918315 504.72471537 125.66084301 504.73180926 C114.26721507 504.7481149 102.87361874 504.7529764 91.47998047 504.7515564 C79.72505865 504.75035582 67.9703207 504.77143603 56.2154454 504.80304372 C46.12873052 504.82919995 36.04207569 504.83992389 25.95532715 504.83864558 C19.9288304 504.83813556 13.90249679 504.84384027 7.87603378 504.86500168 C2.20431883 504.88437175 -3.46707725 504.88451669 -9.13880348 504.86996841 C-11.21887363 504.86787739 -13.29896365 504.87259862 -15.37899971 504.88468933 C-18.22285857 504.90014676 -21.0656188 504.89083 -23.90945435 504.87542725 C-25.13895756 504.89085794 -25.13895756 504.89085794 -26.39329922 504.90660036 C-33.43875632 504.82250754 -38.52682861 502.59994607 -43.84619141 498.00595093 C-50.58005452 490.14977729 -52.4330466 483.26322281 -52.19287109 473.15463257 C-52.16708641 471.29201035 -52.14152303 469.42938507 -52.1161499 467.5667572 C-52.09924858 466.58627474 -52.08234726 465.60579227 -52.06493378 464.59559822 C-51.98421476 459.33489133 -51.96954612 454.07380367 -51.94384766 448.81259155 C-51.90842504 442.14818551 -51.85439113 435.48587239 -51.72265625 428.82260132 C-50.45816052 394.42568422 -50.45816052 394.42568422 -65.42327881 364.49798584 C-67.73125329 361.57729378 -69.43476107 358.53027858 -71.21728516 355.26376343 C-71.77158203 354.3021228 -72.32587891 353.34048218 -72.89697266 352.34970093 C-73.43708984 351.41126343 -73.97720703 350.47282593 -74.53369141 349.50595093 C-75.79278942 347.32104555 -77.05190451 345.13615001 -78.31103516 342.95126343 C-78.93606934 341.86619507 -79.56110352 340.78112671 -80.20507812 339.66317749 C-83.33299289 334.2343515 -86.46477588 328.80775812 -89.59619141 323.38095093 C-90.8462102 321.2142951 -92.09621019 319.04762843 -93.34619141 316.88095093 C-93.96494141 315.80845093 -94.58369141 314.73595093 -95.22119141 313.63095093 C-100.84619141 303.88095093 -100.84619141 303.88095093 -102.72167969 300.62997437 C-103.96990175 298.46647616 -105.2182738 296.30306449 -106.46679688 294.13973999 C-109.62024397 288.67530076 -112.77095236 283.20931447 -115.91650391 277.74032593 C-117.18454925 275.53709512 -118.452777 273.33396928 -119.72119141 271.13095093 C-120.33567139 270.06336548 -120.95015137 268.99578003 -121.58325195 267.89584351 C-126.33447157 259.65901298 -131.16175576 251.46881951 -136.06152344 243.31942749 C-136.56409668 242.47734741 -137.06666992 241.63526733 -137.58447266 240.76766968 C-138.02315674 240.03765747 -138.46184082 239.30764526 -138.91381836 238.55551147 C-142.54968693 231.86860638 -143.32524527 225.90401313 -142.09619141 218.38095093 C-139.94530723 212.32853618 -136.37173284 206.87115593 -133.09619141 201.38095093 C-132.03114828 199.54648755 -130.96876751 197.71047656 -129.90869141 195.87313843 C-127.56578488 191.82371631 -125.2064244 187.78452024 -122.83447266 183.75204468 C-119.07498176 177.3562834 -115.36162352 170.93458535 -111.65869141 164.50595093 C-111.03655762 163.42644165 -110.41442383 162.34693237 -109.7734375 161.23471069 C-108.51121307 159.04430343 -107.24916903 156.85379221 -105.98730469 154.66317749 C-102.85938992 149.2343515 -99.72760693 143.80775812 -96.59619141 138.38095093 C-95.34617262 136.2142951 -94.09617262 134.04762843 -92.84619141 131.88095093 C-80.34619141 110.21428426 -67.84619141 88.54761759 -55.34619141 66.88095093 C-54.72687744 65.80740356 -54.10756348 64.7338562 -53.46948242 63.6277771 C-52.22542349 61.4715488 -50.98112198 59.31546044 -49.73657227 57.15951538 C-46.51862352 51.58429583 -43.30548872 46.00636804 -40.10009766 40.42391968 C-28.74224213 20.65444026 -28.74224213 20.65444026 -24.47119141 13.56845093 C-23.92205078 12.65450562 -23.37291016 11.7405603 -22.80712891 10.79891968 C-16.57885949 1.9968677 -10.30478125 -0.07309981 0 0 Z " fill="#010101" transform="translate(142.09619140625,3.619049072265625)"/>
<path d="M0 0 C3.23345954 2.32165235 6.35257697 4.76688413 9.44140625 7.27734375 C12.03892775 9.37232913 12.03892775 9.37232913 16 9 C18.60407898 7.2884914 18.60407898 7.2884914 21.3125 5 C25.93414799 1.35205881 30.67028888 -1.6843815 35.875 -4.4375 C36.80179565 -4.9315332 36.80179565 -4.9315332 37.74731445 -5.43554688 C47.75350881 -10.61503313 59.57785637 -13.01161992 70.71484375 -10.3515625 C80.85725054 -6.69467007 86.20478084 -0.65923131 90.7734375 8.9375 C94.05265659 17.12510436 94.2751239 23.99938012 94.1875 32.8125 C94.1865332 34.64264648 94.1865332 34.64264648 94.18554688 36.50976562 C94.15223551 43.39781472 93.85883682 50.1638961 93 57 C93.60320068 57.13752686 94.20640137 57.27505371 94.82788086 57.41674805 C109.03868778 60.82369996 125.16370123 70.62886275 133.5 82.625 C134.35614732 84.0700579 135.19223947 85.52734815 136 87 C136.61875 88.03125 137.2375 89.0625 137.875 90.125 C140.62412996 97.17067439 140.2735622 106.93153738 137.4375 113.875 C128.91430199 129.70379631 112.78503769 140.27440366 96 146 C95.01 146 94.02 146 93 146 C93.15855469 147.02738281 93.31710937 148.05476562 93.48046875 149.11328125 C94.26504825 155.45262785 94.26345085 161.80784011 94.3125 168.1875 C94.34150391 169.42564453 94.37050781 170.66378906 94.40039062 171.93945312 C94.48232573 183.97130794 92.1846546 195.75170086 84 205 C75.46929599 212.85246782 68.63685295 214.49926757 57.28515625 214.23828125 C42.60315266 213.58795467 30.6654002 205.33135395 19.3046875 196.6640625 C17.25577477 195.18467805 15.29316894 194.04619228 13 193 C12.113125 193.825 11.22625 194.65 10.3125 195.5 C5.01592696 200.05224811 -1.01420259 203.44355294 -7 207 C-7.66257812 207.42667969 -8.32515625 207.85335937 -9.0078125 208.29296875 C-18.98445638 214.58259207 -30.58781378 215.00628496 -42 214 C-45.2050898 213.18662374 -47.39889209 212.01240451 -50 210 C-51.00740234 209.30583984 -51.00740234 209.30583984 -52.03515625 208.59765625 C-59.98083598 202.52329548 -64.54890517 192.80456409 -66 183 C-66.25619479 178.1634084 -66.23382367 173.34204296 -66.1875 168.5 C-66.18685547 167.21996094 -66.18621094 165.93992187 -66.18554688 164.62109375 C-66.15625747 158.32712558 -65.98172267 152.22019481 -65 146 C-66.19882813 145.89365234 -66.19882813 145.89365234 -67.421875 145.78515625 C-72.15243489 144.74711854 -76.00102818 142.7150529 -80.25 140.4375 C-81.0946582 139.98640869 -81.93931641 139.53531738 -82.80957031 139.07055664 C-92.73138879 133.65561428 -100.76577785 127.5580382 -107 118 C-107.43441406 117.33742187 -107.86882812 116.67484375 -108.31640625 115.9921875 C-112.18704967 108.89825565 -112.02635613 100.80956691 -111 93 C-109.52033723 88.89037184 -107.54603184 85.53376949 -105 82 C-104.29875 80.96875 -103.5975 79.9375 -102.875 78.875 C-94.08532686 69.19523338 -80.32599339 61.26586554 -68 57 C-67.01 57 -66.02 57 -65 57 C-65.06856201 56.43909668 -65.13712402 55.87819336 -65.20776367 55.30029297 C-66.0364543 47.90662175 -66.2524667 40.56112447 -66.3125 33.125 C-66.34150391 31.93519531 -66.37050781 30.74539062 -66.40039062 29.51953125 C-66.48370783 17.79103303 -63.77516052 7.05007137 -56 -2 C-39.72232418 -17.69264307 -17.09888738 -10.82579863 0 0 Z " fill="#010101" transform="translate(242,104)"/>
<path d="M0 0 C0.99914079 -0.00507454 1.99828157 -0.01014909 3.02769935 -0.0153774 C4.12836144 -0.01587516 5.22902353 -0.01637292 6.36303902 -0.01688576 C8.11343615 -0.02345914 8.11343615 -0.02345914 9.89919484 -0.03016531 C13.14361804 -0.04123414 16.38801402 -0.04777903 19.63245177 -0.05234647 C23.12946978 -0.05830266 26.62647001 -0.06991225 30.12347603 -0.08063698 C38.57021846 -0.10515729 47.01696678 -0.11978589 55.46373385 -0.13269705 C57.84868434 -0.1364087 60.23363425 -0.14038194 62.61858416 -0.14444971 C77.42401583 -0.16968167 92.22944842 -0.19173797 107.03489685 -0.20417786 C110.46403062 -0.20710761 113.89316436 -0.21006927 117.32229805 -0.21308327 C118.17460582 -0.21382932 119.02691359 -0.21457537 119.90504886 -0.21534403 C133.7205102 -0.22800525 147.53584307 -0.2612392 161.35124432 -0.3028851 C175.5296299 -0.34527561 189.70794963 -0.36886938 203.88639843 -0.37409842 C211.84944225 -0.3775154 219.81228513 -0.38930448 227.77526665 -0.42220116 C234.55485677 -0.45016304 241.33420476 -0.46121802 248.11384808 -0.4500057 C251.57383715 -0.44480937 255.03331886 -0.44776777 258.49323463 -0.47247124 C262.24241941 -0.49500979 265.99031451 -0.4869373 269.73950386 -0.47098732 C270.83570451 -0.48486941 271.93190515 -0.49875149 273.061324 -0.51305425 C281.25169411 -0.42684171 281.25169411 -0.42684171 284.33067703 2.6125145 C284.94037779 3.44559946 285.55007854 4.27868443 286.17825508 5.13701439 C286.50825508 5.46701439 286.83825508 5.79701439 287.17825508 6.13701439 C287.28919021 7.64117854 287.33118662 9.15048616 287.34561348 10.65866661 C287.35710426 11.63582634 287.36859505 12.61298607 287.38043404 13.6197567 C287.38783607 14.70077156 287.39523811 15.78178642 287.40286446 16.89555931 C287.41425453 18.02723534 287.42564461 19.15891136 287.43737984 20.3248806 C287.53498607 30.77391527 287.58633061 41.22356199 287.62307167 51.67298985 C287.65063203 59.39764256 287.70135404 67.12137547 287.78354597 74.84564513 C287.84610325 80.930917 287.87029627 87.01582344 287.8813343 93.10139465 C287.89175724 95.68943231 287.91423367 98.27745028 287.94893074 100.86527634 C287.99499349 104.48809353 287.99715234 108.108453 287.98880196 111.73149681 C288.01239784 112.80239052 288.03599373 113.87328423 288.06030464 114.97662926 C287.9817529 122.01190585 287.9817529 122.01190585 285.74342155 125.14615917 C282.49439848 128.13681416 279.63157661 129.88615508 275.11673164 129.89409447 C273.72058632 129.91860428 273.72058632 129.91860428 272.29623604 129.94360924 C270.82244484 129.92526276 270.82244484 129.92526276 269.31888008 129.90654564 C268.29268562 129.91788033 267.26649117 129.92921501 266.20919991 129.94089317 C262.94836402 129.97150676 259.68918517 129.96179525 256.42825508 129.94951439 C253.15357809 129.96368944 249.87906939 129.98606088 246.60446358 130.01169395 C244.57117518 130.02472272 242.53781352 130.02948279 240.50448799 130.02515221 C239.12725563 130.02602081 239.12725563 130.02602081 237.72220039 130.02690697 C236.51143837 130.02307755 236.51143837 130.02307755 235.27621651 130.01917076 C232.98427801 130.0558257 232.98427801 130.0558257 230.17825508 131.13701439 C229.18825508 134.10701439 229.18825508 134.10701439 228.17825508 137.13701439 C222.56825508 137.13701439 216.95825508 137.13701439 211.17825508 137.13701439 C210.51825508 135.15701439 209.85825508 133.17701439 209.17825508 131.13701439 C205.36358956 129.86545922 201.79009489 130.00391631 197.81625557 130.01917076 C196.95291816 130.01846618 196.08958074 130.0177616 195.20008159 130.01703566 C192.29597641 130.01572321 189.39192505 130.02140894 186.48782539 130.02690697 C184.41009712 130.02714902 182.33236873 130.02687213 180.25464058 130.02611351 C175.77425202 130.02500596 171.2938737 130.02644344 166.8134861 130.02947998 C159.72906032 130.03310646 152.64468815 130.02398599 145.56027412 130.01169395 C144.36535072 130.00967202 143.17042731 130.0076501 141.9392941 130.0055669 C139.49555391 130.00139813 137.05181378 129.99719537 134.60807371 129.99295938 C118.11125376 129.96479565 101.61454962 129.94469048 85.11770821 129.96196556 C73.99499442 129.97351787 62.87252073 129.96394999 51.74985003 129.92990798 C45.86249137 129.91273916 39.975566 129.90648487 34.08820534 129.92602539 C28.54927865 129.94424241 23.01109857 129.93465741 17.47223473 129.90376854 C15.44013093 129.89739819 13.40796516 129.90126669 11.37590599 129.9161644 C8.59910438 129.93500984 5.8248675 129.91693236 3.04818916 129.88977623 C2.24574437 129.90404445 1.44329958 129.91831267 0.61653829 129.93301326 C-4.6836291 129.8284106 -7.69599647 128.47613442 -11.51684546 124.76286155 C-13.34099011 122.49005778 -13.69703044 120.90980787 -13.69717216 118.00736046 C-13.71402061 117.02188225 -13.73086906 116.03640404 -13.74822807 115.02106285 C-13.73091637 113.95645332 -13.71360466 112.8918438 -13.69576836 111.79497337 C-13.70482201 110.66096092 -13.71387566 109.52694847 -13.72320366 108.35857201 C-13.74379154 104.61592665 -13.7137073 100.87563975 -13.68111992 97.13310814 C-13.68075619 94.53049206 -13.68276291 91.92787466 -13.68704033 89.32526207 C-13.69062038 83.87364027 -13.66612879 78.42269551 -13.62447929 72.9712429 C-13.5766804 66.67477996 -13.57145262 60.37938632 -13.58942962 54.08279175 C-13.60592055 48.01605256 -13.59384577 41.94979595 -13.56870079 35.88306427 C-13.56033203 33.30545472 -13.55885185 30.72781335 -13.56435204 28.15019608 C-13.56763078 24.54937377 -13.5385338 20.9502519 -13.50045586 17.34966087 C-13.51092445 15.74971024 -13.51092445 15.74971024 -13.52160454 14.11743736 C-13.39688035 6.90347034 -13.39688035 6.90347034 -10.46682549 2.99872398 C-6.86633401 0.46455939 -4.29065744 0.01156134 0 0 Z " fill="#C1B2F8" transform="translate(118.82174491882324,363.8629856109619)"/>
<path d="M0 0 C0.83542119 -0.00905664 1.67084239 -0.01811328 2.53157938 -0.02744436 C3.44936689 -0.02211644 4.36715441 -0.01678851 5.31275368 -0.01129913 C6.28775814 -0.01739024 7.2627626 -0.02348134 8.26731265 -0.02975702 C11.54931032 -0.04646667 14.8309234 -0.04159981 18.11295509 -0.03681183 C20.459939 -0.04414756 22.80691929 -0.05273232 25.15389442 -0.06247711 C31.54024423 -0.08475478 37.92646524 -0.08762064 44.31284857 -0.0857296 C48.9679563 -0.08562522 53.62303717 -0.09205814 58.27813829 -0.09935716 C58.94207298 -0.10039664 59.60600767 -0.10143613 60.29006159 -0.10250711 C60.95637975 -0.10355064 61.6226979 -0.10459417 62.30920751 -0.10566932 C74.91700924 -0.12458035 87.5247528 -0.12351898 100.13256283 -0.11669999 C111.66860208 -0.11112498 123.20441922 -0.13194647 134.74040656 -0.16506046 C146.58194478 -0.19878799 158.42337658 -0.21396691 170.26496375 -0.20934343 C176.91454491 -0.20709764 183.56394614 -0.21281522 190.21349144 -0.23723602 C196.46637085 -0.25943997 202.71878703 -0.25767786 208.97166824 -0.2373085 C211.26908093 -0.23388715 213.56652442 -0.23903562 215.86389542 -0.25329208 C218.99574987 -0.27138861 222.12601685 -0.25880595 225.25782204 -0.23834991 C226.17114811 -0.25086776 227.08447419 -0.26338561 228.02547681 -0.27628279 C232.46540201 -0.21393145 234.31082422 -0.09329208 237.89413834 2.74502563 C240.00956454 5.51029057 241.89626615 8.27992089 243.68180275 11.2698288 C244.34244728 12.37262177 245.00309181 13.47541473 245.68375587 14.61162567 C246.01850929 15.179216 246.35326271 15.74680634 246.69816017 16.33159637 C247.7312152 18.08152527 248.77686206 19.82344926 249.82438087 21.56475067 C254.9122715 30.11140438 254.9122715 30.11140438 254.9122715 32.38311005 C256.1703965 32.54811005 257.4285215 32.71311005 258.7247715 32.88311005 C259.78631447 33.0223288 259.78631447 33.0223288 260.86930275 33.16436005 C263.06698856 33.43634304 263.06698856 33.43634304 265.9122715 33.38311005 C266.97326478 35.12146062 268.01053633 36.87430809 269.0372715 38.63311005 C269.61734962 39.6076413 270.19742775 40.58217255 270.795084 41.58623505 C271.9122715 44.38311005 271.9122715 44.38311005 271.154459 46.36748505 C270.53957619 47.36521942 270.53957619 47.36521942 269.9122715 48.38311005 C268.76027982 51.51934862 268.57277246 53.51711717 269.80143166 56.65117645 C271.19183163 59.38818012 272.68282419 62.04101409 274.2247715 64.69561005 C274.77802101 65.67690887 275.33127052 66.6582077 275.90128517 67.66924286 C277.55273135 70.58520733 279.22735146 73.48638318 280.9122715 76.38311005 C281.3453965 77.13060516 281.7785215 77.87810028 282.2247715 78.64824677 C284.18751568 82.02574857 286.17268208 85.38928866 288.170084 88.7463913 C291.53164263 94.40789776 294.81341616 100.11523135 298.0997715 105.82061005 C298.73761574 106.92759247 299.37545998 108.03457489 300.03263283 109.17510223 C301.3408575 111.44598279 302.64887987 113.71697989 303.95670509 115.98809052 C307.10559204 121.45480984 310.25910414 126.91885892 313.4122715 132.38311005 C314.662295 134.54976316 315.91229497 136.71642984 317.1622715 138.88311005 C317.7810215 139.95561005 318.3997715 141.02811005 319.0372715 142.13311005 C324.6622715 151.88311005 324.6622715 151.88311005 326.53946877 155.1370163 C327.78203169 157.29072724 329.02470639 159.44437371 330.26749611 161.5979538 C333.16541773 166.61995267 336.06230499 171.64253812 338.95502663 176.66753387 C339.97174348 178.43356526 340.98882808 180.19938436 342.0060215 181.9651413 C343.27628023 184.17045159 344.54586168 186.37615221 345.81461525 188.5823288 C346.39469337 189.58908661 346.9747715 190.59584442 347.57242775 191.63311005 C348.12559669 192.60119598 348.67876564 193.56928192 349.24869728 194.5667038 C350.35620509 196.44169794 351.51146909 198.28930092 352.71256447 200.1057663 C356.87917472 206.46905474 356.87917472 206.46905474 357.045084 211.0510788 C355.72763143 214.92620654 353.95618213 218.25282053 351.7872715 221.69561005 C350.87027474 223.20243047 349.95502382 224.71031423 349.04117775 226.21904755 C348.53989357 227.04114716 348.03860939 227.86324677 347.52213478 228.71025848 C344.51476307 233.70338943 341.62800994 238.76647613 338.7247715 243.82061005 C337.42939183 246.06941929 336.13381636 248.31811576 334.83805275 250.5667038 C334.18788185 251.69576141 333.53771095 252.82481903 332.86783791 253.98809052 C329.71895096 259.45480984 326.56543886 264.91885892 323.4122715 270.38311005 C322.162248 272.54976316 320.91224803 274.71642984 319.6622715 276.88311005 C317.1622715 281.21644338 314.6622715 285.54977671 312.1622715 289.88311005 C311.5427964 290.95689911 310.9233213 292.03068817 310.28507423 293.1370163 C309.04251131 295.29072724 307.79983661 297.44437371 306.55704689 299.5979538 C303.65912527 304.61995267 300.76223801 309.64253812 297.86951637 314.66753387 C296.85279952 316.43356526 295.83571492 318.19938436 294.8185215 319.9651413 C293.54826277 322.17045159 292.27868132 324.37615221 291.00992775 326.5823288 C287.37586362 332.88944899 283.68128891 339.15566341 279.9122715 345.38311005 C277.77231803 343.28755396 275.83794794 341.28401197 274.0372715 338.88311005 C271.63006676 336.05110447 269.0668268 334.31885989 265.9122715 332.38311005 C267.20335341 328.99308283 268.67008691 325.86150173 270.4591465 322.7073288 C270.96679543 321.8098996 271.47444435 320.9124704 271.99747658 319.98784637 C272.5468589 319.02515839 273.09624123 318.0624704 273.6622715 317.07061005 C274.52791725 315.54633392 274.52791725 315.54633392 275.4110508 313.99126434 C280.03752675 305.86606666 284.74209294 297.78746845 289.46793556 289.71977997 C294.00213125 281.97064262 298.46793837 274.18394359 302.9122715 266.38311005 C309.11921066 255.49060283 315.39626154 244.6407484 321.72867775 233.82061005 C322.24188576 232.94275848 322.75509377 232.06490692 323.28385353 231.1604538 C324.46262736 229.14999937 325.64655866 227.14256594 326.83365822 225.1370163 C327.46674904 224.06322723 328.09983986 222.98943817 328.75211525 221.88311005 C329.33211281 220.90342255 329.91211037 219.92373505 330.50968361 218.91436005 C332.97085831 214.4726787 333.86019509 210.37623096 332.9122715 205.38311005 C330.92165671 200.88131736 328.3906969 196.71490036 325.8497715 192.50811005 C325.11699333 191.26580779 324.38598289 190.0224613 323.65665627 188.77812958 C322.15486626 186.22036365 320.64453993 183.66795818 319.12711525 181.11943817 C315.80719082 175.53416201 312.58479671 169.8928152 309.3497715 164.25811005 C308.10959974 162.10926051 306.8687137 159.96082306 305.62711525 157.81279755 C301.88575494 151.33800983 298.14869667 144.86074661 294.4122715 138.38311005 C293.16229028 136.21643254 291.91229029 134.04976587 290.6622715 131.88311005 C268.1622715 92.88311005 268.1622715 92.88311005 266.28702736 89.63262177 C265.03791632 87.46753934 263.78873021 85.30250022 262.53946877 83.13750458 C258.76835828 76.6018305 254.99998208 70.06459095 251.23404884 63.52593231 C249.37120525 60.29528169 247.50319279 57.06765895 245.63492775 53.8401413 C243.07527562 49.41425903 240.54633522 44.97236905 238.03336525 40.5198288 C236.78474173 38.32838016 235.53604648 36.13697238 234.2872715 33.94561005 C233.7193589 32.92644501 233.1514463 31.90727997 232.56632423 30.85723114 C232.02822121 29.91831024 231.49011818 28.97938934 230.935709 28.0120163 C230.47084084 27.18774139 230.00597267 26.36346649 229.52701759 25.51421356 C227.50105766 22.84039979 225.96313593 21.8250255 222.9122715 20.38311005 C219.94297876 20.09884255 217.18714729 19.97778891 214.22037697 20.00215912 C213.34575247 19.99747915 212.47112797 19.99279917 211.56999969 19.98797739 C208.63966516 19.97601263 205.709797 19.98549047 202.779459 19.99492645 C200.67848373 19.99086142 198.57751059 19.98551992 196.47654152 19.97899628 C190.77001908 19.96530887 185.06365918 19.97062727 179.35713387 19.98013353 C173.38836666 19.98772271 167.41961347 19.98068658 161.45084572 19.97597504 C151.42689449 19.97051533 141.40300954 19.97771477 131.37906837 19.99199677 C119.78593763 20.00832365 108.19296516 20.0030353 96.59983826 19.98651755 C86.65068328 19.97290884 76.70157598 19.97098002 66.7524147 19.97883356 C60.80825773 19.98351344 54.86417517 19.98412621 48.92002296 19.97422409 C43.33202381 19.96556571 37.74422896 19.97155584 32.15625191 19.98890686 C30.10395332 19.99287772 28.05163757 19.99172745 25.99934578 19.98511887 C23.20071946 19.97693706 20.40275033 19.98718435 17.60416603 20.00215912 C16.38213384 19.99212087 16.38213384 19.99212087 15.13541412 19.98187983 C10.54881302 20.02957518 7.55310588 20.52315304 3.9122715 23.38311005 C2.12763472 25.70200512 2.12763472 25.70200512 0.670084 28.4495163 C-0.20486717 29.99349091 -0.20486717 29.99349091 -1.09749413 31.56865692 C-2.02078514 33.24024872 -2.02078514 33.24024872 -2.9627285 34.94561005 C-3.62221671 36.11757726 -4.28304862 37.28878925 -4.94515038 38.45928192 C-6.31918893 40.8907974 -7.68739685 43.32545591 -9.05159569 45.76250458 C-12.17647869 51.33363438 -15.38641577 56.85567878 -18.5877285 62.38311005 C-19.83812835 64.54954598 -21.0881271 66.71621347 -22.3377285 68.88311005 C-74.8377285 159.88311005 -74.8377285 159.88311005 -76.71639061 163.13750458 C-77.95644243 165.28822199 -79.1942643 167.44022679 -80.42976952 169.59355927 C-83.34072291 174.66073173 -86.27206678 179.71209613 -89.28520775 184.71910858 C-90.70137607 187.07550702 -92.1047215 189.4394207 -93.50716209 191.80400848 C-94.49818538 193.46284363 -95.50756594 195.11066838 -96.517416 196.75811005 C-100.73261743 203.55248356 -100.73261743 203.55248356 -101.69173241 211.26592255 C-100.25086876 216.31651653 -97.65167977 220.82994848 -95.0877285 225.38311005 C-94.31259911 226.76417938 -94.31259911 226.76417938 -93.52181053 228.17314911 C-91.92310481 230.96699403 -90.29188082 233.73930019 -88.6502285 236.50811005 C-87.41651509 238.60538966 -86.18346594 240.70306013 -84.95100975 242.8010788 C-84.31759666 243.87792938 -83.68418358 244.95477997 -83.03157616 246.06426239 C-80.41852464 250.52568192 -77.83571964 255.00415138 -75.25813866 259.48613739 C-73.98526831 261.69626493 -72.70764902 263.90366471 -71.42513084 266.1082077 C-68.61690688 270.94005888 -65.85400968 275.77414073 -63.27132225 280.7307663 C-59.74090581 288.38156908 -59.74090581 288.38156908 -53.53694725 293.3635788 C-51.85931022 293.49850256 -50.17677753 293.58428957 -48.4939785 293.6135788 C-44.10774174 295.0163201 -42.47474817 299.48480071 -40.42317772 303.33306122 C-38.0877285 307.97535983 -38.0877285 307.97535983 -38.0877285 310.38311005 C-38.7477285 310.38311005 -39.4077285 310.38311005 -40.0877285 310.38311005 C-41.39934965 314.93006338 -41.69511173 317.15125608 -39.56038475 321.4807663 C-38.26410023 323.59332503 -36.93011658 325.68329256 -35.5564785 327.7463913 C-35.071791 328.61650848 -34.5871035 329.48662567 -34.0877285 330.38311005 C-35.23886841 333.83652977 -35.9809029 334.22953362 -38.9002285 336.19561005 C-42.66566096 338.8929306 -44.80070272 341.38081494 -47.0877285 345.38311005 C-49.56263156 343.12097531 -51.11268706 340.83057002 -52.73225975 337.9026413 C-53.48889915 336.54682953 -53.48889915 336.54682953 -54.2608242 335.16362762 C-55.07232933 333.69445892 -55.07232933 333.69445892 -55.9002285 332.19561005 C-57.07587013 330.09063753 -58.25299962 327.98649543 -59.4314785 325.88311005 C-60.03733788 324.80158661 -60.64319725 323.72006317 -61.267416 322.6057663 C-64.09226297 317.60469601 -66.99363343 312.64947707 -69.9002285 307.69561005 C-75.02049525 298.95724134 -80.07434084 290.18304065 -85.0877285 281.38311005 C-90.04136448 272.68900671 -95.0315767 264.01817318 -100.0877285 255.38311005 C-105.38794218 246.32819427 -110.62945946 237.24110878 -115.8377285 228.13311005 C-116.18851463 227.52048309 -116.53930077 226.90785614 -116.90071678 226.27666473 C-117.89659321 224.53681832 -118.89063573 222.79592258 -119.8846035 221.05498505 C-120.45533592 220.05563934 -121.02606834 219.05629364 -121.61409569 218.02666473 C-122.10039452 217.15429169 -122.58669334 216.28191864 -123.0877285 215.38311005 C-123.50441795 214.70925262 -123.92110741 214.0353952 -124.35042381 213.34111786 C-125.37035348 210.63256292 -124.93399875 209.12963931 -124.0877285 206.38311005 C-122.91121483 203.90142059 -122.91121483 203.90142059 -121.41975975 201.2698288 C-120.86369041 200.28200409 -120.30762108 199.29417938 -119.73470116 198.27642059 C-118.82663719 196.68954437 -118.82663719 196.68954437 -117.9002285 195.07061005 C-117.2716494 193.96048553 -116.6430703 192.85036102 -115.99544334 191.70659637 C-111.22402792 183.30516994 -106.36868279 174.95277833 -101.48152733 166.61821747 C-96.96077794 158.90480242 -92.51298779 151.15148595 -88.0877285 143.38311005 C-82.54819747 133.66168021 -76.95397663 123.974157 -71.30428123 114.31621552 C-65.15006108 103.7922638 -59.06402854 93.22930867 -52.97884178 82.66533661 C-49.22744826 76.15439748 -45.47081856 69.64647811 -41.71516991 63.13799286 C-38.57590604 57.69725668 -35.43791353 52.25579528 -32.30257225 46.81279755 C-29.19534374 41.41921614 -26.08315234 36.02852362 -22.96809959 30.6394577 C-21.68278332 28.41360099 -20.39934006 26.18666193 -19.11751366 23.95879364 C-17.19530032 20.6185152 -15.26711846 17.281747 -13.3377285 13.94561005 C-12.75305809 12.92644501 -12.16838768 11.90727997 -11.56599998 10.85723114 C-11.02145164 9.91831024 -10.47690331 8.97938934 -9.9158535 8.0120163 C-9.4405117 7.18774139 -8.96516991 6.36346649 -8.47542381 5.51421356 C-6.06340284 1.81003849 -4.55746569 0.00991545 0 0 Z " fill="#6E7182" transform="translate(140.0877285003662,18.61688995361328)"/>
<path d="M0 0 C2.75746999 3.30538577 5.02895473 6.58942457 7.1015625 10.359375 C7.66866943 11.38345459 8.23577637 12.40753418 8.82006836 13.46264648 C9.71350952 15.08988647 9.71350952 15.08988647 10.625 16.75 C14.65708274 24.02314293 18.69013149 31.28750712 22.9375 38.4375 C27.07341637 45.40755586 31.1412128 52.41501381 35.1875 59.4375 C35.82550537 60.54472412 36.46351074 61.65194824 37.12084961 62.79272461 C38.42889477 65.06337068 39.73675448 67.33412358 41.04443359 69.60498047 C44.19332053 75.07169978 47.34682044 80.53575592 50.5 86 C54.29741408 92.58172043 58.09448093 99.16364073 61.890625 105.74609375 C62.53169189 106.85581543 63.17275879 107.96553711 63.83325195 109.10888672 C65.09850454 111.30611685 66.3575935 113.50690922 67.61010742 115.71142578 C70.46829491 120.72521244 73.3787442 125.64193489 76.59765625 130.43359375 C77.14260742 131.27414307 77.68755859 132.11469238 78.24902344 132.98071289 C79.25302587 134.51822879 80.29432443 136.03236763 81.37988281 137.51342773 C82.83356667 139.78353853 83.62942504 141.32246141 84 144 C82.65799936 148.39901318 80.40032982 152.0990357 78 156 C76.95832174 157.83519246 75.91792296 159.67111186 74.87890625 161.5078125 C73.77701051 163.38231326 72.67140225 165.25463557 71.5625 167.125 C70.32231764 169.23402286 69.08275562 171.34341061 67.84375 173.453125 C66.89242187 175.07057617 66.89242187 175.07057617 65.921875 176.72070312 C62.77515892 182.08994733 59.66841381 187.48208191 56.5625 192.875 C55.62966187 194.49365967 55.62966187 194.49365967 54.67797852 196.14501953 C53.41550269 198.33582951 52.15321444 200.5267476 50.89111328 202.71777344 C47.76319851 208.14659943 44.63140434 213.57318635 41.5 219 C40.26430886 221.14191898 39.02863183 223.28384609 37.79296875 225.42578125 C35.49750542 229.40462432 33.20176586 233.38330773 30.90567017 237.36178589 C29.87326522 239.15066918 28.84092044 240.93958717 27.80859375 242.72851562 C26.51314052 244.97337636 25.2175743 247.2181719 23.921875 249.46289062 C23.33535156 250.47931641 22.74882812 251.49574219 22.14453125 252.54296875 C21.63253174 253.43008545 21.12053223 254.31720215 20.59301758 255.23120117 C18.72180666 258.48352348 16.86161423 261.74217509 15 265 C-73.44 265 -161.88 265 -253 265 C-253 264.67 -253 264.34 -253 264 C-252.18977449 264.0031424 -251.37954899 264.00628481 -250.54477119 264.00952244 C-230.80474153 264.08298195 -211.06519645 264.10660095 -191.32504463 264.07515812 C-181.77866211 264.06114663 -172.23283596 264.06383084 -162.68652344 264.10620117 C-154.36317406 264.14310073 -146.04050323 264.1482852 -137.71712482 264.11582941 C-133.31210879 264.09974853 -128.90836498 264.09924795 -124.5034523 264.13676643 C-120.35118512 264.17163094 -116.20111113 264.16386414 -112.04890633 264.12437057 C-110.53084479 264.11726789 -109.01261901 264.1253143 -107.49474525 264.15022469 C-99.88731512 264.26650254 -94.22191421 263.97254455 -88.2807312 258.69969177 C-86.82056393 257.16407875 -85.39162185 255.59799388 -84 254 C-82.59708567 252.55927146 -81.19024399 251.12234309 -79.77734375 249.69140625 C-78.49304685 248.31916153 -77.21302677 246.9429005 -75.9375 245.5625 C-75.27556641 244.85673828 -74.61363281 244.15097656 -73.93164062 243.42382812 C-70.58624917 239.98353396 -70.58624917 239.98353396 -68 236 C-70.97 235.67 -73.94 235.34 -77 235 C-77 234.67 -77 234.34 -77 234 C-75.62328125 233.96132813 -75.62328125 233.96132813 -74.21875 233.921875 C-66.93485639 233.58522445 -61.05823041 233.22571828 -55 229 C-54.39800781 228.61199219 -53.79601562 228.22398437 -53.17578125 227.82421875 C-45.3882604 222.09760364 -41.72427122 212.23630063 -40 203 C-39.7590742 200.0357647 -39.76473808 197.09739238 -39.8046875 194.125 C-39.8075174 193.31506592 -39.81034729 192.50513184 -39.81326294 191.6706543 C-39.82435285 189.11361166 -39.84943548 186.55693465 -39.875 184 C-39.8850443 182.25391135 -39.8941676 180.50781715 -39.90234375 178.76171875 C-39.92425534 174.50767415 -39.95870618 170.25389881 -40 166 C-38.91968506 165.53456787 -37.83937012 165.06913574 -36.72631836 164.58959961 C-35.28493199 163.96482286 -33.84361057 163.33989625 -32.40234375 162.71484375 C-31.69315796 162.40977905 -30.98397217 162.10471436 -30.2532959 161.79040527 C-15.91658858 155.55902401 -1.99978911 147.31112456 4.140625 132.19140625 C5.95796337 125.44247238 6.45296859 116.52506279 3.75 109.9375 C1.92972681 106.88204143 0.03506024 103.91691968 -2 101 C-3.58786426 97.82427148 -1.98193098 95.322936 -1 92 C-0.59668827 89.63285009 -0.24356853 87.25667611 0.0625 84.875 C0.21847656 83.69679688 0.37445313 82.51859375 0.53515625 81.3046875 C1.9559537 68.71547794 2.19758205 56.21630718 2.1875 43.5625 C2.1882251 42.63600647 2.1889502 41.70951294 2.18969727 40.75494385 C2.18851264 27.06747669 1.78214097 13.58882491 0 0 Z " fill="#454554" transform="translate(375,84)"/>
<path d="M0 0 C2.73083902 -0.13548815 5.45491807 -0.23429855 8.1875 -0.3125 C8.95642578 -0.35439453 9.72535156 -0.39628906 10.51757812 -0.43945312 C11.26845703 -0.45556641 12.01933594 -0.47167969 12.79296875 -0.48828125 C13.4789917 -0.51446533 14.16501465 -0.54064941 14.87182617 -0.56762695 C20.19711877 0.85273616 23.10930613 6.43213175 25.76953125 10.88671875 C26.43017578 11.98951172 27.09082031 13.09230469 27.77148438 14.22851562 C28.10623779 14.79610596 28.44099121 15.36369629 28.78588867 15.94848633 C29.8189437 17.69841522 30.86459056 19.44033921 31.91210938 21.18164062 C37 29.72829433 37 29.72829433 37 32 C38.258125 32.165 39.51625 32.33 40.8125 32.5 C41.87404297 32.63921875 41.87404297 32.63921875 42.95703125 32.78125 C45.15471706 33.053233 45.15471706 33.053233 48 33 C49.06099328 34.73835057 50.09826483 36.49119804 51.125 38.25 C51.70507812 39.22453125 52.28515625 40.1990625 52.8828125 41.203125 C54 44 54 44 53.2421875 45.984375 C52.83226562 46.64953125 52.42234375 47.3146875 52 48 C50.84800832 51.13623857 50.66050096 53.13400713 51.88916016 56.26806641 C53.27956013 59.00507007 54.7705527 61.65790405 56.3125 64.3125 C56.86574951 65.29379883 57.41899902 66.27509766 57.98901367 67.28613281 C59.64045985 70.20209728 61.31507996 73.10327313 63 76 C63.433125 76.74749512 63.86625 77.49499023 64.3125 78.26513672 C66.27524418 81.64263853 68.26041058 85.00617861 70.2578125 88.36328125 C73.61937113 94.02478771 76.90114466 99.7321213 80.1875 105.4375 C81.14426636 107.09797363 81.14426636 107.09797363 82.12036133 108.79199219 C83.428586 111.06287274 84.73660837 113.33386985 86.04443359 115.60498047 C89.19332054 121.0716998 92.34683264 126.53574887 95.5 132 C96.7500235 134.16665311 98.00002347 136.33331979 99.25 138.5 C99.86875 139.5725 100.4875 140.645 101.125 141.75 C106.75 151.5 106.75 151.5 108.62719727 154.75390625 C109.86976019 156.9076172 111.11243489 159.06126367 112.35522461 161.21484375 C115.25314623 166.23684262 118.15003349 171.25942807 121.04275513 176.28442383 C122.05947198 178.05045522 123.07655658 179.81627431 124.09375 181.58203125 C125.36400873 183.78734155 126.63359018 185.99304216 127.90234375 188.19921875 C128.48242188 189.20597656 129.0625 190.21273437 129.66015625 191.25 C130.2133252 192.21808594 130.76649414 193.18617188 131.33642578 194.18359375 C132.44393359 196.05858789 133.59919759 197.90619087 134.80029297 199.72265625 C138.96690322 206.08594469 138.96690322 206.08594469 139.1328125 210.66796875 C137.81535993 214.5430965 136.04391063 217.86971048 133.875 221.3125 C132.95800324 222.81932043 132.04275232 224.32720418 131.12890625 225.8359375 C130.62762207 226.65803711 130.12633789 227.48013672 129.60986328 228.32714844 C126.60249157 233.32027938 123.71573844 238.38336609 120.8125 243.4375 C119.51712034 245.68630925 118.22154486 247.93500571 116.92578125 250.18359375 C116.27561035 251.31265137 115.62543945 252.44170898 114.95556641 253.60498047 C111.80667946 259.0716998 108.65316736 264.53574887 105.5 270 C104.2499765 272.16665311 102.99997653 274.33331979 101.75 276.5 C99.25 280.83333333 96.75 285.16666667 94.25 289.5 C93.6305249 290.57378906 93.0110498 291.64757812 92.37280273 292.75390625 C91.13023981 294.9076172 89.88756511 297.06126367 88.64477539 299.21484375 C85.74685377 304.23684262 82.84996651 309.25942807 79.95724487 314.28442383 C78.94052802 316.05045522 77.92344342 317.81627431 76.90625 319.58203125 C75.63599127 321.78734155 74.36640982 323.99304216 73.09765625 326.19921875 C69.46359212 332.50633895 65.76901741 338.77255337 62 345 C59.86004653 342.90444391 57.92567644 340.90090192 56.125 338.5 C53.71779526 335.66799442 51.1545553 333.93574984 48 332 C49.29108191 328.60997279 50.75781541 325.47839169 52.546875 322.32421875 C53.05452393 321.42678955 53.56217285 320.52936035 54.08520508 319.60473633 C54.6345874 318.64204834 55.18396973 317.67936035 55.75 316.6875 C56.61564575 315.16322388 56.61564575 315.16322388 57.4987793 313.6081543 C62.12525525 305.48295661 66.82982144 297.4043584 71.55566406 289.33666992 C76.08985975 281.58753257 80.55566687 273.80083355 85 266 C91.20693916 255.10749278 97.48399004 244.25763835 103.81640625 233.4375 C104.32961426 232.55964844 104.84282227 231.68179688 105.37158203 230.77734375 C106.55035586 228.76688932 107.73428716 226.7594559 108.92138672 224.75390625 C109.87102295 223.14322266 109.87102295 223.14322266 110.83984375 221.5 C111.41984131 220.5203125 111.99983887 219.540625 112.59741211 218.53125 C115.05858681 214.08956865 115.94792359 209.99312091 115 205 C113.00938521 200.49820732 110.4784254 196.33179032 107.9375 192.125 C107.20472183 190.88269774 106.47371139 189.63935125 105.74438477 188.39501953 C104.24259476 185.8372536 102.73226843 183.28484813 101.21484375 180.73632812 C97.89491932 175.15105197 94.67252521 169.50970516 91.4375 163.875 C90.19732824 161.72615047 88.9564422 159.57771301 87.71484375 157.4296875 C83.97348344 150.95489978 80.23642517 144.47763657 76.5 138 C75.25001878 135.8333225 74.00001879 133.66665583 72.75 131.5 C50.25 92.5 50.25 92.5 48.37475586 89.24951172 C47.12564482 87.08442929 45.87645871 84.91939018 44.62719727 82.75439453 C40.85612204 76.21878156 37.08788539 69.68154287 33.32177734 63.14306641 C31.45844154 59.91132074 29.59077316 56.68210874 27.72265625 53.453125 C25.16906028 49.0370408 22.6389738 44.60841132 20.12109375 40.171875 C18.87253831 37.98950181 17.62384553 35.8072072 16.375 33.625 C15.8070874 32.61421387 15.2391748 31.60342773 14.65405273 30.56201172 C11.84717533 25.68118013 9.5177565 22.44132354 5 19 C4.31640625 16.63671875 4.31640625 16.63671875 4 14 C3.33807272 11.92915119 2.64944866 9.86668879 1.9375 7.8125 C0 2.22064057 0 2.22064057 0 0 Z " fill="#595A6A" transform="translate(358,19)"/>
<path d="M0 0 C3.31834594 -0.05038017 6.63247161 -0.06608152 9.95092773 -0.0559082 C12.02644181 -0.05055831 14.10173868 -0.05587346 16.17724609 -0.06225586 C19.98519276 -0.06673405 23.79001688 -0.0070317 27.59716797 0.07446289 C28.5244873 0.08050537 29.45180664 0.08654785 30.40722656 0.09277344 C34.44867121 0.28170785 36.27114009 0.75770826 39.20654297 3.60961914 C39.95350344 4.76445823 40.66515515 5.94261714 41.34716797 7.13696289 C41.74202393 7.78020508 42.13687988 8.42344727 42.54370117 9.08618164 C43.93480864 11.39413725 45.2653363 13.73181429 46.59716797 16.07446289 C47.16677246 17.04754395 47.73637695 18.020625 48.32324219 19.02319336 C50.17179232 22.19178463 51.98418561 25.37833892 53.78466797 28.57446289 C54.3740918 29.60063721 54.96351563 30.62681152 55.57080078 31.68408203 C59.55732991 38.97422948 59.55732991 38.97422948 59.72998047 43.74243164 C58.27322437 48.02730388 56.44472477 51.91470045 54.28466797 55.88696289 C53.84243896 56.70213379 53.40020996 57.51730469 52.94458008 58.35717773 C51.51802011 60.9430195 50.06206675 63.51016769 48.59716797 66.07446289 C48.1121582 66.93894043 47.62714844 67.80341797 47.12744141 68.6940918 C45.68339305 71.22619379 44.18383984 73.71492963 42.65966797 76.19946289 C42.21905029 76.97523682 41.77843262 77.75101074 41.32446289 78.55029297 C39.36254741 81.6176303 37.89734302 83.67119326 34.34204102 84.77392578 C31.40066547 85.09130867 28.55591665 85.11171053 25.59716797 85.07446289 C23.66368004 85.11733789 21.73019308 85.1602723 19.79673767 85.20458984 C17.00601453 85.25578403 14.21618273 85.26008656 11.42504883 85.25976562 C9.27063943 85.26197729 7.11672343 85.28027962 4.96240234 85.29907227 C3.57373219 85.30200294 2.18505965 85.30398991 0.79638672 85.30493164 C-0.44280518 85.30904053 -1.68199707 85.31314941 -2.95874023 85.31738281 C-7.25637237 85.01426068 -10.9283322 84.59041363 -14.02685547 81.40478516 C-14.43452148 80.74019287 -14.8421875 80.07560059 -15.26220703 79.39086914 C-15.73376221 78.63708984 -16.20531738 77.88331055 -16.69116211 77.10668945 C-17.17351318 76.29167969 -17.65586426 75.47666992 -18.15283203 74.63696289 C-18.66289795 73.79746094 -19.17296387 72.95795898 -19.69848633 72.09301758 C-21.29413679 69.43533105 -22.85343206 66.75934547 -24.40283203 64.07446289 C-24.91088379 63.20225098 -25.41893555 62.33003906 -25.94238281 61.43139648 C-27.39516758 58.91048527 -28.81245224 56.37343185 -30.21533203 53.82446289 C-30.65393555 53.05175049 -31.09253906 52.27903809 -31.54443359 51.48291016 C-34.14742767 46.59242025 -35.08568762 43.58850034 -33.40283203 38.07446289 C-31.77912874 34.46225461 -29.9099162 31.02284688 -27.96533203 27.57446289 C-27.42618164 26.61064697 -26.88703125 25.64683105 -26.33154297 24.65380859 C-24.70814925 21.7822936 -23.06066084 18.92621175 -21.40283203 16.07446289 C-20.93538574 15.26025879 -20.46793945 14.44605469 -19.98632812 13.60717773 C-18.74201456 11.46927511 -17.45947863 9.36220092 -16.15283203 7.26196289 C-15.7900415 6.64063477 -15.42725098 6.01930664 -15.0534668 5.37915039 C-13.01859053 2.24649417 -11.70219119 1.15342633 -8.07080078 0.19555664 C-5.38166123 0.05761176 -2.69239086 0.05891657 0 0 Z " fill="#595A6A" transform="translate(243.40283203125,162.925537109375)"/>
<path d="M0 0 C2.89740622 -0.13539281 5.78845621 -0.23426829 8.6875 -0.3125 C9.50412109 -0.35439453 10.32074219 -0.39628906 11.16210938 -0.43945312 C15.67197805 -0.53074601 17.39474402 -0.49250454 21.01953125 2.45703125 C21.67308594 3.29621094 22.32664062 4.13539063 23 5 C23.495 5.495 23.495 5.495 24 6 C24.11093513 7.50416415 24.15293154 9.01347177 24.1673584 10.52165222 C24.17884918 11.49881195 24.19033997 12.47597168 24.20217896 13.48274231 C24.20958099 14.56375717 24.21698303 15.64477203 24.22460938 16.75854492 C24.24169449 18.45605896 24.24169449 18.45605896 24.25912476 20.18786621 C24.35673099 30.63690088 24.40807552 41.0865476 24.44481659 51.53597546 C24.47237695 59.26062817 24.52309895 66.98436108 24.60529089 74.70863074 C24.66784817 80.79390261 24.69204119 86.87880905 24.70307922 92.96438026 C24.71350216 95.55241792 24.73597859 98.1404359 24.77067566 100.72826195 C24.81673841 104.35107914 24.81889726 107.97143861 24.81054688 111.59448242 C24.8459407 113.20082298 24.8459407 113.20082298 24.88204956 114.83961487 C24.80333262 121.88968703 24.80333262 121.88968703 22.54199219 125.01516151 C18.64518226 128.57655158 15.61632831 129.66434457 10.34179688 129.52734375 C9.58962891 129.47707031 8.83746094 129.42679688 8.0625 129.375 C7.28326172 129.34792969 6.50402344 129.32085937 5.70117188 129.29296875 C3.79956162 129.22297083 1.8993973 129.11537396 0 129 C0.32742188 128.21367187 0.65484375 127.42734375 0.9921875 126.6171875 C2.27171195 122.02478578 2.21774403 117.86207961 2.125 113.125 C2.11597656 112.24585938 2.10695313 111.36671875 2.09765625 110.4609375 C2.07424577 108.3071729 2.0383801 106.15354986 2 104 C1.57291748 104.48605713 1.14583496 104.97211426 0.70581055 105.47290039 C-2.70535798 108.52669446 -7.88589739 107.49223803 -12.25 107.3515625 C-18.54130515 106.76175264 -22.17790046 104.96226104 -26.4375 100.375 C-28.93663202 96.57631933 -29.13351604 94.48588527 -29.16113281 89.9296875 C-29.17074036 88.65496582 -29.1803479 87.38024414 -29.19024658 86.06689453 C-29.1950933 84.66959817 -29.19937244 83.27229973 -29.203125 81.875 C-29.2088754 80.44775388 -29.21463315 79.02050778 -29.22039795 77.59326172 C-29.23090587 74.60058227 -29.23675035 71.60792968 -29.24023438 68.61523438 C-29.2457283 64.77477825 -29.26977586 60.93467504 -29.29820633 57.09432983 C-29.31679785 54.14671783 -29.32203636 51.19919158 -29.32357025 48.25152588 C-29.32660366 46.83528711 -29.33465528 45.41905008 -29.34775543 44.00286865 C-29.36474635 42.02542081 -29.36110101 40.04782786 -29.35644531 38.0703125 C-29.36009094 36.94383301 -29.36373657 35.81735352 -29.36749268 34.65673828 C-29.24622009 33.78001465 -29.12494751 32.90329102 -29 32 C-26.00261059 30.00174039 -25.36652492 29.72449602 -22 29.75 C-20.9790625 29.74226563 -20.9790625 29.74226563 -19.9375 29.734375 C-18 30 -18 30 -15 32 C-14.65942383 34.15478516 -14.65942383 34.15478516 -14.70703125 36.7890625 C-14.71669922 37.73007812 -14.72636719 38.67109375 -14.73632812 39.640625 C-14.76146484 40.62546875 -14.78660156 41.6103125 -14.8125 42.625 C-14.82603516 43.61757813 -14.83957031 44.61015625 -14.85351562 45.6328125 C-14.88894257 48.08908072 -14.93833804 50.54427285 -15 53 C-13.94039063 52.97679687 -12.88078125 52.95359375 -11.7890625 52.9296875 C-10.4010487 52.91093056 -9.0130273 52.89273028 -7.625 52.875 C-6.92632812 52.85824219 -6.22765625 52.84148437 -5.5078125 52.82421875 C-3.67102514 52.80655733 -1.83398037 52.89696739 0 53 C0.66 53.66 1.32 54.32 2 55 C2.05079385 48.13154261 2.08577306 41.26313385 2.10986328 34.39453125 C2.11990831 32.05890086 2.13354677 29.723283 2.15087891 27.38769531 C2.17519277 24.02666119 2.18649827 20.66579366 2.1953125 17.3046875 C2.20563507 16.26384003 2.21595764 15.22299255 2.22659302 14.15060425 C2.2273819 9.02983621 2.0629386 4.78972941 0 0 Z " fill="#9F9AFE" transform="translate(382,364)"/>
<path d="M0 0 C0.68231186 -0.00287018 1.36462372 -0.00574036 2.06761169 -0.00869751 C3.51423978 -0.01073854 4.96089544 -0.00520581 6.4074707 0.00732422 C8.58935897 0.0232065 10.76934566 0.00756975 12.95117188 -0.01171875 C30.91498929 -0.03987258 30.91498929 -0.03987258 37.99609375 5.8359375 C39.01703125 7.104375 39.01703125 7.104375 40.05859375 8.3984375 C40.63609375 9.0996875 41.21359375 9.8009375 41.80859375 10.5234375 C45.82900781 16.55405858 44.83770097 26.38317818 44.05859375 33.3984375 C42.28161798 38.72936481 38.77251058 42.37669594 34.05859375 45.3984375 C32.73433062 45.76615485 31.40149163 46.10600942 30.05859375 46.3984375 C30.5182251 47.21521973 30.97785645 48.03200195 31.45141602 48.87353516 C33.15502058 51.91922292 34.84338937 54.9723734 36.5222168 58.03173828 C37.2506829 59.35207297 37.98500582 60.66919436 38.7253418 61.98291016 C39.79094909 63.87620839 40.8346859 65.78021308 41.875 67.6875 C42.50865479 68.82912598 43.14230957 69.97075195 43.79516602 71.14697266 C45.22517267 74.82713278 45.17064274 76.65091041 44.05859375 80.3984375 C41.76881136 83.04049411 40.11183616 83.38660585 36.68359375 84.1484375 C33.05859375 83.3984375 33.05859375 83.3984375 31.59423828 81.79589844 C28.7613772 77.42779033 26.35048782 73.04980637 24.19921875 68.3046875 C23.72226563 67.25539063 23.2453125 66.20609375 22.75390625 65.125 C21.78125421 62.95362004 20.83368068 60.7708506 19.91015625 58.578125 C18.49400189 55.52619876 17.23520419 52.96725067 15.05859375 50.3984375 C11.63819442 49.17413349 8.65545587 49.05927928 5.05859375 49.3984375 C5.07954102 50.32180908 5.10048828 51.24518066 5.12207031 52.1965332 C5.19025906 55.62388073 5.24039837 59.0505073 5.27832031 62.47827148 C5.29843134 63.96146011 5.32572449 65.44456949 5.36035156 66.92749023 C5.40889727 69.05993185 5.4315657 71.19132527 5.44921875 73.32421875 C5.47016602 74.60723877 5.49111328 75.89025879 5.51269531 77.2121582 C5.05859375 80.3984375 5.05859375 80.3984375 3.25292969 82.31323242 C0.00357021 83.92019758 -2.37310699 83.84447491 -5.94140625 83.3984375 C-8.12879944 81.83253479 -8.12879944 81.83253479 -9.94140625 79.3984375 C-10.33136055 76.79507378 -10.47946105 74.61524245 -10.44311523 72.01538086 C-10.44851822 71.27834427 -10.4539212 70.54130768 -10.45948792 69.78193665 C-10.47197629 67.35030735 -10.45548627 64.91986173 -10.4375 62.48828125 C-10.43765497 60.79724567 -10.43914362 59.10620972 -10.44190979 57.41517639 C-10.44329377 53.87354811 -10.43073493 50.33232481 -10.40795898 46.79077148 C-10.3795524 42.24867086 -10.38231745 37.70724203 -10.3950491 33.16509151 C-10.40199953 29.67438506 -10.39422469 26.18383424 -10.38179207 22.69314766 C-10.37727289 21.01819009 -10.37694484 19.34321585 -10.38085747 17.66825676 C-10.38376408 15.32918839 -10.36729109 12.99105047 -10.34545898 10.65209961 C-10.34996063 9.95851349 -10.35446228 9.26492737 -10.35910034 8.55032349 C-10.31525955 5.72715022 -10.23821228 3.82884403 -8.6111145 1.46934509 C-5.85583348 -0.29782073 -3.22588994 0.00865458 0 0 Z " fill="#030304" transform="translate(141.94140625,387.6015625)"/>
<path d="M0 0 C5.78662843 3.23830399 10.15613277 7.75866271 12.6875 13.9375 C12.953125 16.375 12.953125 16.375 12.9375 18.9375 C12.94523437 20.2059375 12.94523437 20.2059375 12.953125 21.5 C12.66242438 24.1676057 12.19677623 25.72134755 10.6875 27.9375 C7.22697739 30.21921886 4.24895002 30.16987682 0.171875 30.1328125 C-1.70371094 30.12314453 -1.70371094 30.12314453 -3.6171875 30.11328125 C-5.57011719 30.08814453 -5.57011719 30.08814453 -7.5625 30.0625 C-8.87992188 30.05347656 -10.19734375 30.04445313 -11.5546875 30.03515625 C-14.80747462 30.01158533 -18.05989589 29.97868022 -21.3125 29.9375 C-20.74583454 31.40239049 -20.15845772 32.85928003 -19.5625 34.3125 C-19.23765625 35.12460937 -18.9128125 35.93671875 -18.578125 36.7734375 C-17.09491081 39.30955066 -16.04160214 39.95100994 -13.3125 40.9375 C-8.18175071 41.54250413 -3.15994948 41.63762415 1.5625 39.375 C4.6875 37.9375 4.6875 37.9375 7.5 38.0625 C9.6875 38.9375 9.6875 38.9375 11.6875 41.9375 C12.125 44.375 12.125 44.375 11.6875 46.9375 C6.01098573 52.78602985 0.2519769 54.14495737 -7.625 54.375 C-17.17931222 54.16729756 -24.52183624 51.72816376 -31.3125 44.9375 C-35.63690349 38.82368817 -35.5765311 33.00837483 -35.6875 25.75 C-35.72488281 24.84185547 -35.76226562 23.93371094 -35.80078125 22.99804688 C-35.88869009 16.17534409 -34.42623677 11.42320943 -30.3125 5.9375 C-28.03125 3.81640625 -28.03125 3.81640625 -25.8125 2.5 C-25.0803125 2.04753906 -24.348125 1.59507812 -23.59375 1.12890625 C-15.75593463 -2.96447335 -8.1974732 -3.76439857 0 0 Z " fill="#040406" transform="translate(228.3125,418.0625)"/>
<path d="M0 0 C2.36948336 2.11877039 4.27079228 4.3360854 6 7 C6.34981934 7.51723633 6.69963867 8.03447266 7.06005859 8.56738281 C8.47039009 12.21739399 8.24441352 15.84756921 8.1953125 19.703125 C8.1924826 20.54091492 8.18965271 21.37870483 8.18673706 22.24188232 C8.17556349 24.91140163 8.15046421 27.5805825 8.125 30.25 C8.11496654 32.06249515 8.10584133 33.87499556 8.09765625 35.6875 C8.0756334 40.12512993 8.04112304 44.56250763 8 49 C4.46144391 50.91831011 2.06514808 51.43246256 -2 51 C-3.875 49.8125 -3.875 49.8125 -5 48 C-5.1875 45.3125 -5.1875 45.3125 -5 43 C-5.66 43 -6.32 43 -7 43 C-7.185625 43.5775 -7.37125 44.155 -7.5625 44.75 C-10.01295073 48.58548809 -13.9895652 49.9947826 -18 52 C-24.18459073 52.79144671 -28.60955352 52.37978519 -33.625 48.58203125 C-37.57730054 44.03464 -37.48774266 38.61859547 -37.375 32.8828125 C-36.78416342 28.34075628 -35.52233342 26.92278731 -32 24 C-25.47030847 20.55707174 -19.42046144 19.86305652 -12.125 19.9375 C-10.97257812 19.94652344 -9.82015625 19.95554687 -8.6328125 19.96484375 C-7.76398438 19.97644531 -6.89515625 19.98804688 -6 20 C-6.42423244 18.53775201 -6.86490245 17.08026588 -7.3125 15.625 C-7.55613281 14.81289063 -7.79976563 14.00078125 -8.05078125 13.1640625 C-8.91368185 10.66815371 -8.91368185 10.66815371 -12 9 C-17.40833952 8.37666595 -22.03349047 8.72959564 -27 11 C-29.6875 11.3125 -29.6875 11.3125 -32 11 C-34.33458635 7.49812047 -34.67260727 6.11971953 -34 2 C-24.52242363 -6.12363689 -10.52283278 -6.4222983 0 0 Z " fill="#040305" transform="translate(284,420)"/>
<path d="M0 0 C0.85314876 2.43371909 1.60579313 4.8362059 2.3125 7.3125 C4.16612832 13.59893194 6.3739653 19.51016007 9.1796875 25.44921875 C10.61605782 29.91564647 8.7820635 33.86859544 7.1875 38.125 C6.83429688 39.07890625 6.48109375 40.0328125 6.1171875 41.015625 C5.37239583 43.00520833 4.62760417 44.99479167 3.8828125 46.984375 C3.52960938 47.93828125 3.17640625 48.8921875 2.8125 49.875 C2.48894531 50.73867187 2.16539062 51.60234375 1.83203125 52.4921875 C1.00603006 54.98182489 0.45781372 57.41959541 0 60 C-11.83799433 58.37427931 -24.86208415 49.78106877 -32.71484375 41.10546875 C-36.1092912 36.48864411 -36.71075556 32.20746158 -36.4140625 26.5390625 C-35.8066905 22.81461156 -34.49538666 20.81530803 -32 18 C-31.56042969 17.46117187 -31.12085938 16.92234375 -30.66796875 16.3671875 C-25.9544675 11.0451076 -7.13731599 -3.56865799 0 0 Z " fill="#595A6A" transform="translate(182,176)"/>
<path d="M0 0 C4.49654445 5.821545 6.25699026 12.35989627 6.23046875 19.60546875 C6.22853516 20.83587891 6.22660156 22.06628906 6.22460938 23.33398438 C6.20624023 25.24147461 6.20624023 25.24147461 6.1875 27.1875 C6.18685547 28.47076172 6.18621094 29.75402344 6.18554688 31.07617188 C6.14060834 40.57817497 6.14060834 40.57817497 5 44 C4.410979 43.88406494 3.82195801 43.76812988 3.21508789 43.64868164 C0.49828336 43.11617837 -2.21958643 42.58931222 -4.9375 42.0625 C-5.86369141 41.88009766 -6.78988281 41.69769531 -7.74414062 41.50976562 C-12.86923945 40.52071147 -17.91306265 39.72029682 -23.12109375 39.33544922 C-29.28537209 38.23491408 -33.26743292 31.29986868 -36.83203125 26.71484375 C-40.3571064 22.30056045 -44.17854125 18.15760558 -48 14 C-44.35992784 10.11267765 -40.62406704 7.20521571 -36.125 4.375 C-35.53847656 3.9934375 -34.95195312 3.611875 -34.34765625 3.21875 C-24.0373282 -3.35266788 -10.64132246 -8.30023152 0 0 Z " fill="#595A6A" transform="translate(315,112)"/>
<path d="M0 0 C6.47138826 3.42080249 10.41793999 9.03506996 12.70703125 15.90234375 C13.64091043 23.9203636 12.50680017 30.3141994 7.70703125 36.90234375 C2.1041063 42.35841784 -3.67498884 45.1783031 -11.54296875 45.33984375 C-17.93027292 45.21714977 -22.37017572 44.0311379 -27.29296875 39.90234375 C-33.30737453 33.47315137 -35.78701312 27.48650822 -35.609375 18.6875 C-34.84579717 11.96612972 -31.35805919 7.24384984 -26.29296875 2.90234375 C-18.18598506 -2.93468451 -9.30596015 -4.11281742 0 0 Z " fill="#010202" transform="translate(267.29296875,184.09765625)"/>
<path d="M0 0 C12.80207005 4.92561915 26.65093674 10.80053708 34.2109375 22.9453125 C36.11891022 27.91359791 35.97900951 33.50652271 34.04296875 38.4375 C27.73450433 48.90918733 13.56537698 57.45015627 1.80834961 60.58422852 C1.21159424 60.72143311 0.61483887 60.8586377 0 61 C-1.41071441 57.24814872 -2.81638995 53.49445166 -4.2175293 49.73901367 C-4.69435516 48.46311238 -5.17252766 47.18771346 -5.65209961 45.9128418 C-6.34326813 44.07474981 -7.02911262 42.23465866 -7.71484375 40.39453125 C-8.12855225 39.28956299 -8.54226074 38.18459473 -8.96850586 37.04614258 C-11.03057331 30.95657675 -10.93201552 27.84790367 -8.3125 22 C-5.70443681 15.88187097 -3.60595379 9.81052328 -1.76171875 3.4140625 C-1 1 -1 1 0 0 Z " fill="#5A5A6A" transform="translate(331,175)"/>
<path d="M0 0 C11.8047273 2.37049106 22.79496611 9.30419772 31 18 C30.2265625 18.82242188 29.453125 19.64484375 28.65625 20.4921875 C23.04971623 26.4910704 17.63758846 32.48340669 12.71875 39.07421875 C8.98874709 43.25351746 4.32222818 43.6365706 -1 44.5 C-2.12426392 44.69009644 -2.12426392 44.69009644 -3.27124023 44.8840332 C-5.51322798 45.26188555 -7.75647942 45.63137479 -10 46 C-11.24910156 46.21011719 -12.49820313 46.42023438 -13.78515625 46.63671875 C-16.52255549 47.09675843 -19.26071226 47.55136906 -22 48 C-23.77379963 42.67860111 -23.26994189 37.0069374 -23.3125 31.4375 C-23.34150391 30.19935547 -23.37050781 28.96121094 -23.40039062 27.68554688 C-23.46314328 18.56710311 -22.49522216 11.09196741 -16.4375 4 C-10.84327422 -0.59013397 -7.04630332 -0.68679159 0 0 Z " fill="#5A5B6A" transform="translate(214,108)"/>
<path d="M0 0 C1.63499785 5.52824348 1.30745867 11.28354746 1.375 17 C1.41238281 18.16917969 1.44976562 19.33835937 1.48828125 20.54296875 C1.57062645 28.78663844 0.41598541 35.89703935 -4 43 C-9.36600888 47.78531648 -12.63823178 48.35335235 -19.70703125 48.27734375 C-32.52195061 47.19803263 -43.36258052 38.86823136 -53 31 C-51.8553125 29.6696875 -51.8553125 29.6696875 -50.6875 28.3125 C-47.57187518 24.67636506 -44.47115653 21.02771093 -41.375 17.375 C-40.67443481 16.54995972 -40.67443481 16.54995972 -39.9597168 15.70825195 C-39.50636963 15.17288818 -39.05302246 14.63752441 -38.5859375 14.0859375 C-38.1842334 13.6120459 -37.7825293 13.1381543 -37.36865234 12.64990234 C-35.86698602 10.89155572 -35.86698602 10.89155572 -34.2253418 8.40380859 C-31.45963971 5.41630417 -29.78796483 5.09838077 -25.80859375 4.453125 C-24.61685547 4.24816406 -23.42511719 4.04320312 -22.19726562 3.83203125 C-20.95654297 3.63996094 -19.71582031 3.44789063 -18.4375 3.25 C-15.97765224 2.83981306 -13.5180065 2.4284122 -11.05859375 2.015625 C-9.96861084 1.84321289 -8.87862793 1.67080078 -7.75561523 1.49316406 C-5.08162783 1.01460868 -2.7111211 0 0 0 Z " fill="#5A5B6B" transform="translate(320,255)"/>
<path d="M0 0 C0.87140625 0.19335938 1.7428125 0.38671875 2.640625 0.5859375 C9.46725075 2.07833837 16.27165621 3.44029005 23.18359375 4.47265625 C30.28208231 5.80177685 34.06178335 7.33630558 38.5 13.125 C39.44603897 14.30254601 40.39265328 15.47963003 41.33984375 16.65625 C41.79214355 17.22859375 42.24444336 17.8009375 42.71044922 18.390625 C44.42570193 20.53128117 46.23492902 22.57995189 48.0625 24.625 C49.92891801 26.7150231 51.43232508 28.64848762 53 31 C42.03158833 40.9137567 28.96695197 48.49955392 13.91015625 48.26171875 C9.76448672 47.88888673 7.91750004 46.98865858 5 44 C1.26246536 37.76056376 -1.12524174 32.25745998 -1.1328125 24.94140625 C-1.13410156 23.75095703 -1.13539063 22.56050781 -1.13671875 21.33398438 C-1.13285156 20.08939453 -1.12898437 18.84480469 -1.125 17.5625 C-1.12886719 16.32177734 -1.13273438 15.08105469 -1.13671875 13.80273438 C-1.13478516 12.01512695 -1.13478516 12.01512695 -1.1328125 10.19140625 C-1.13168457 9.10029541 -1.13055664 8.00918457 -1.12939453 6.88500977 C-1.01832721 4.4086277 -0.71911343 2.35907767 0 0 Z " fill="#5A5B6B" transform="translate(192,255)"/>
<path d="M0 0 C0.680625 -0.00515625 1.36125 -0.0103125 2.0625 -0.015625 C4 0.25 4 0.25 7 2.25 C7.34057617 4.40478516 7.34057617 4.40478516 7.29296875 7.0390625 C7.28330078 7.98007812 7.27363281 8.92109375 7.26367188 9.890625 C7.23853516 10.87546875 7.21339844 11.8603125 7.1875 12.875 C7.17396484 13.86757813 7.16042969 14.86015625 7.14648438 15.8828125 C7.11105743 18.33908072 7.06166196 20.79427285 7 23.25 C8.05960937 23.22679687 9.11921875 23.20359375 10.2109375 23.1796875 C11.5989513 23.16093056 12.9869727 23.14273028 14.375 23.125 C15.42300781 23.09986328 15.42300781 23.09986328 16.4921875 23.07421875 C18.32897486 23.05655733 20.16601963 23.14696739 22 23.25 C24 25.25 24 25.25 24.23046875 27.16015625 C24.11111111 33.13888889 24.11111111 33.13888889 23 34.25 C20.30345146 34.32319621 17.63308542 34.34242537 14.9375 34.3125 C13.79958008 34.30573242 13.79958008 34.30573242 12.63867188 34.29882812 C10.75908129 34.2870068 8.87953101 34.26907078 7 34.25 C7.10944715 38.70885926 7.24017666 43.16684156 7.375 47.625 C7.4059375 48.89601563 7.436875 50.16703125 7.46875 51.4765625 C7.50742187 52.68828125 7.54609375 53.9 7.5859375 55.1484375 C7.6173584 56.26911621 7.6487793 57.38979492 7.68115234 58.54443359 C7.73411203 61.39710412 7.73411203 61.39710412 10 63.25 C12.79272024 63.59526588 15.56018113 63.69256407 18.37109375 63.80859375 C21 64.25 21 64.25 22.82421875 65.56640625 C24.8023415 68.39886773 24.35641082 70.92349902 24 74.25 C22.92578125 75.94140625 22.92578125 75.94140625 21 77.25 C13.77252438 78.20166049 5.89778525 78.36351121 -0.484375 74.46484375 C-3.38307199 72.14140364 -5.35022391 69.54955217 -7 66.25 C-7.1068525 64.22867204 -7.14886393 62.20380055 -7.16113281 60.1796875 C-7.17074036 58.90496582 -7.1803479 57.63024414 -7.19024658 56.31689453 C-7.1950933 54.91959817 -7.19937244 53.52229973 -7.203125 52.125 C-7.2088754 50.69775388 -7.21463315 49.27050778 -7.22039795 47.84326172 C-7.23090587 44.85058227 -7.23675035 41.85792968 -7.24023438 38.86523438 C-7.2457283 35.02477825 -7.26977586 31.18467504 -7.29820633 27.34432983 C-7.31679785 24.39671783 -7.32203636 21.44919158 -7.32357025 18.50152588 C-7.32660366 17.08528711 -7.33465528 15.66905008 -7.34775543 14.25286865 C-7.36474635 12.27542081 -7.36110101 10.29782786 -7.35644531 8.3203125 C-7.36009094 7.19383301 -7.36373657 6.06735352 -7.36749268 4.90673828 C-7.24622009 4.03001465 -7.12494751 3.15329102 -7 2.25 C-4.00261059 0.25174039 -3.36652492 -0.02550398 0 0 Z " fill="#010102" transform="translate(360,393.75)"/>
<path d="M0 0 C1.7578125 1.4140625 1.7578125 1.4140625 3 3 C2.66666667 9.33333333 2.66666667 9.33333333 0 12 C-1.875 12.01171875 -1.875 12.01171875 -4 11.6875 C-4.70125 11.58824219 -5.4025 11.48898437 -6.125 11.38671875 C-8 11 -8 11 -10 10 C-16.38811106 9.4767221 -16.38811106 9.4767221 -22 12 C-23.93849423 15.89093446 -24.27035228 19.11772875 -24.25 23.4375 C-24.25515625 24.52933594 -24.2603125 25.62117188 -24.265625 26.74609375 C-23.98584869 30.17335354 -23.36197583 32.844756 -22 36 C-17.75588883 38.82940744 -13.98399042 38.42468086 -9 38 C-7.3255761 37.3530635 -5.65697379 36.69040574 -4 36 C-0.8125 36.1875 -0.8125 36.1875 2 37 C4.1610211 40.24153166 4.64247553 41.23692901 4 45 C-0.38944609 49.66378648 -5.87545286 51.71097939 -12.125 52.2890625 C-19.60432743 52.47950834 -26.29397543 52.4633682 -31.96875 47.16015625 C-38.58628053 39.87816057 -39.34155749 34.94358014 -39.3125 25.25 C-39.32861328 24.19039063 -39.34472656 23.13078125 -39.36132812 22.0390625 C-39.36573315 14.9381644 -38.96997823 8.8271365 -34.45703125 3.01171875 C-24.31206257 -5.15727028 -11.45941418 -7.27465996 0 0 Z " fill="#030305" transform="translate(341,420)"/>
<path d="M0 0 C0.33 0 0.66 0 1 0 C1 12.54 1 25.08 1 38 C-0.32 36.68 -1.64 35.36 -3 34 C-5.70557996 33.4173257 -5.70557996 33.4173257 -8.5625 33.4375 C-13.53336777 33.32283955 -13.53336777 33.32283955 -15.64160156 31.86425781 C-17.61032229 29.16239738 -17.33964577 27.11484975 -17.29296875 23.80078125 C-17.28330078 22.59228516 -17.27363281 21.38378906 -17.26367188 20.13867188 C-17.2259668 18.2447168 -17.2259668 18.2447168 -17.1875 16.3125 C-17.17396484 15.03826172 -17.16042969 13.76402344 -17.14648438 12.45117188 C-17.11108199 9.30035943 -17.0616979 6.15038955 -17 3 C-15.85660156 2.95101563 -14.71320313 2.90203125 -13.53515625 2.8515625 C-12.04424527 2.77654811 -10.55336108 2.70099972 -9.0625 2.625 C-8.30775391 2.5940625 -7.55300781 2.563125 -6.77539062 2.53125 C-4.84492605 2.4273685 -2.92057919 2.22104386 -1 2 C-0.67 1.34 -0.34 0.68 0 0 Z " fill="#BCAEF2" transform="translate(384,425)"/>
<path d="M0 0 C2.84625 -0.103125 5.6925 -0.20625 8.625 -0.3125 C9.95265381 -0.38078003 9.95265381 -0.38078003 11.30712891 -0.45043945 C15.38426356 -0.5215576 18.21518155 -0.31836054 21.51953125 2.2109375 C24.74512869 5.83782974 24.97674516 7.87938396 25.171875 12.5625 C24.87118618 16.82681415 23.33360656 19.56798482 20.46484375 22.6484375 C16.66404966 24.73254963 13.00185421 24.31605678 8.75 24.1875 C5.8625 24.125625 2.975 24.06375 0 24 C0 16.08 0 8.16 0 0 Z " fill="#BFB0F5" transform="translate(147,401)"/>
<path d="M0 0 C-0.59515991 3.54231959 -1.53374666 6.48989187 -3.07421875 9.73046875 C-3.70082397 11.05268433 -3.70082397 11.05268433 -4.34008789 12.40161133 C-4.78473389 13.32095459 -5.22937988 14.24029785 -5.6875 15.1875 C-6.13794678 16.12553467 -6.58839355 17.06356934 -7.05249023 18.0300293 C-13.3431933 30.99381814 -13.3431933 30.99381814 -17 36 C-17.33 36 -17.66 36 -18 36 C-18.34011625 32.83402429 -18.67083187 29.6671312 -19 26.5 C-19.09539062 25.613125 -19.19078125 24.72625 -19.2890625 23.8125 C-19.83514946 18.50765526 -20.0996753 13.33262848 -20 8 C-18.86820312 7.50628906 -17.73640625 7.01257813 -16.5703125 6.50390625 C-15.08852958 5.85679852 -13.6067594 5.20966159 -12.125 4.5625 C-11.37863281 4.23701172 -10.63226563 3.91152344 -9.86328125 3.57617188 C-8.79013672 3.10727539 -8.79013672 3.10727539 -7.6953125 2.62890625 C-7.03547363 2.34088135 -6.37563477 2.05285645 -5.69580078 1.75610352 C-1.75718437 0 -1.75718437 0 0 0 Z " fill="#595A6A" transform="translate(355,242)"/>
<path d="M0 0 C3.5060303 0.86943897 4.94966563 2.56083702 6.9375 5.48046875 C7.7253128 9.89222045 7.46725133 11.70239649 4.9375 15.41796875 C1.60161401 17.71139037 -0.16234094 18.23862384 -4.125 17.9609375 C-7.6310303 17.09149853 -9.07466563 15.40010048 -11.0625 12.48046875 C-11.8503128 8.06871705 -11.59225133 6.25854101 -9.0625 2.54296875 C-5.72661401 0.24954713 -3.96265906 -0.27768634 0 0 Z " fill="#99D3E6" transform="translate(258.0625,196.51953125)"/>
<path d="M0 0 C3.4203866 1.17013226 3.91540482 1.87310723 6 5 C6.1875 7.625 6.1875 7.625 6 10 C5 11 5 11 3.14233398 11.11352539 C2.35157471 11.10828857 1.56081543 11.10305176 0.74609375 11.09765625 C-0.10791016 11.09443359 -0.96191406 11.09121094 -1.84179688 11.08789062 C-2.73962891 11.07951172 -3.63746094 11.07113281 -4.5625 11.0625 C-5.46419922 11.05798828 -6.36589844 11.05347656 -7.29492188 11.04882812 C-9.53001314 11.03700225 -11.76497437 11.0205222 -14 11 C-13.2578125 4.3046875 -13.2578125 4.3046875 -10.9375 1.5625 C-6.88758087 -0.5917123 -4.56839461 -0.4350852 0 0 Z " fill="#BCAEF1" transform="translate(221,428)"/>
<path d="M0 0 C0.99386719 0.00902344 1.98773438 0.01804687 3.01171875 0.02734375 C4.15060547 0.04474609 4.15060547 0.04474609 5.3125 0.0625 C4.9382368 5.42693913 3.3165457 7.55896001 -0.6875 11.0625 C-1.0175 11.3925 -1.3475 11.7225 -1.6875 12.0625 C-7.93271739 12.5251087 -7.93271739 12.5251087 -10.625 10.875 C-12.07468434 8.40200907 -12.11067323 6.88365488 -11.6875 4.0625 C-8.58459651 -0.07470465 -4.86060887 -0.05718363 0 0 Z " fill="#BAACEF" transform="translate(272.6875,447.9375)"/>
<path d="M0 0 C1.85329634 2.77994451 2.68563605 4.78256551 3.625 7.9375 C3.88539063 8.79214844 4.14578125 9.64679688 4.4140625 10.52734375 C5 13 5 13 5 17 C3.08654673 17.53251766 1.1690705 18.05059483 -0.75 18.5625 C-1.81734375 18.85253906 -2.8846875 19.14257812 -3.984375 19.44140625 C-7 20 -7 20 -11 19 C-7.37 12.73 -3.74 6.46 0 0 Z " fill="#555665" transform="translate(311,224)"/>
<path d="M0 0 C5.50808397 0.59015185 10.64878069 1.56663769 16 3 C15.35729017 8.9129304 13.80996216 14.34244531 12 20 C9.86187451 17.98405311 8.25292367 16.01104183 6.73828125 13.49609375 C6.34189453 12.83802734 5.94550781 12.17996094 5.53710938 11.50195312 C5.13298828 10.82068359 4.72886719 10.13941406 4.3125 9.4375 C3.68891602 8.40979492 3.68891602 8.40979492 3.05273438 7.36132812 C0 2.2533867 0 2.2533867 0 0 Z " fill="#555665" transform="translate(300,167)"/>
<path d="M0 0 C0.66 0 1.32 0 2 0 C5.3 5.94 8.6 11.88 12 18 C8.19068824 19.26977059 6.18381007 18.52074507 2.3125 17.5625 C0.54326172 17.13130859 0.54326172 17.13130859 -1.26171875 16.69140625 C-2.16535156 16.46324219 -3.06898438 16.23507813 -4 16 C-3.47606294 10.13190493 -2.23891142 5.45126259 0 0 Z " fill="#565666" transform="translate(200,225)"/>
<path d="M0 0 C-1.59623144 4.39383706 -3.78024333 8.28995807 -6.125 12.3125 C-6.49753906 12.95767578 -6.87007812 13.60285156 -7.25390625 14.26757812 C-8.16632213 15.84675945 -9.08275509 17.42361864 -10 19 C-10.66 19 -11.32 19 -12 19 C-12.67413211 17.08594633 -13.3390332 15.16863974 -14 13.25 C-14.37125 12.18265625 -14.7425 11.1153125 -15.125 10.015625 C-16 7 -16 7 -16 3 C-14.08487728 2.49411853 -12.16783078 1.99551609 -10.25 1.5 C-8.64898437 1.08234375 -8.64898437 1.08234375 -7.015625 0.65625 C-4 0 -4 0 0 0 Z " fill="#565766" transform="translate(212,167)"/>
<path d="M0 0 C7.26 0 14.52 0 22 0 C15.25 9 15.25 9 12 12 C8.35865951 10.49917723 6.31243814 8.39379438 3.75 5.4375 C3.04359375 4.63183594 2.3371875 3.82617188 1.609375 2.99609375 C0 1 0 1 0 0 Z " fill="#585969" transform="translate(245,263)"/>
<path d="M0 0 C3.64134049 1.50082277 5.68756186 3.60620562 8.25 6.5625 C8.95640625 7.36816406 9.6628125 8.17382812 10.390625 9.00390625 C12 11 12 11 12 12 C4.74 12 -2.52 12 -10 12 C-3.25 3 -3.25 3 0 0 Z " fill="#585868" transform="translate(255,136)"/>
</svg>
